<svg version="1.1" id="Vrstva_1" xmlns="http://www.w3.org/2000/svg" xmlns:xlink="http://www.w3.org/1999/xlink" x="0px" y="0px"
	 viewBox="-1.000 -1.000 123.100 124.500" enable-background="new 0 0 121.1 122.5" xml:space="preserve">
<path fill="#4D4D4D" d="M12.9,34.6L23.4,25l-10.5-9.6v4.8H5.2v9.8h7.7V34.6z M60.6,47.8c1.2,0,2.2-1.8,2.2-4c0-2.2-1-4-2.2-4
	c-1.2,0-2.2,1.8-2.2,4C58.4,46,59.3,47.8,60.6,47.8z M0,29.9h2.4v-9.8H0V29.9z M118.7,20.1v9.8h2.4v-9.8H118.7z M95,4.1
	c0.9-1.1,0.7-2.7-0.4-3.5c-1.1-0.9-2.7-0.7-3.5,0.4C91,1.1,77.3,18.6,89.4,38.2c1.5,2.4,2.9,4.9,4.2,7.3c-10,4.4-21.6,6.7-33.6,6.7
	c-11.6,0-22.8-2.2-32.6-6.3c1.3-2.6,2.8-5.1,4.4-7.7c12-19.5-1.6-37-1.7-37.2c-0.9-1.1-2.4-1.3-3.5-0.4c-1.1,0.9-1.3,2.4-0.4,3.5
	c0.1,0.1,11.6,14.9,1.4,31.5C9.8,64.3,7.1,91.4,19.1,120.9c0.4,1,1.3,1.6,2.3,1.6c0.3,0,0.6-0.1,0.9-0.2c1.3-0.5,1.9-2,1.4-3.3
	c-7.1-17.5-8.8-34.1-4.9-50.8c0.4,0.3,0.8,0.5,1.3,0.7C39,76.2,55.6,90.2,56.3,90.8c0.7,0.6,1.5,1,2.4,1.3v27.8c0,1,0.8,1.9,1.9,1.9
	c1,0,1.9-0.8,1.9-1.9v-28c1-0.4,1.9-1,2.5-1.8c0.1-0.1,12.8-14.6,35.4-21c0.7-0.2,1.3-0.5,1.8-0.9c3.9,16.7,2.2,33.3-4.9,50.8
	c-0.5,1.3,0.1,2.7,1.4,3.3c0.3,0.1,0.6,0.2,0.9,0.2c1,0,1.9-0.6,2.3-1.6c12-29.5,9.3-56.7-8.4-85.4C83.5,19.1,94.5,4.7,95,4.1z
	 M101,63.7c-0.2,0.8-0.8,1.6-1.7,1.8c-23.8,6.7-37.1,22-37.2,22.2c-0.4,0.5-1,0.8-1.7,0.8c-0.6,0.1-1.3-0.2-1.8-0.6
	C58,87.3,41,72.9,21.5,65.5c-0.8-0.3-1.3-1-1.4-1.8c1.4-4.8,3.3-9.6,5.6-14.4c10.3,4.4,22.1,6.7,34.3,6.7c12.6,0,24.7-2.5,35.3-7.1
	C97.7,53.8,99.6,58.8,101,63.7z M108.2,15.3L97.7,25l10.5,9.6v-4.8h7.7v-9.8h-7.7V15.3z"/>
<script  type="text/javascript">
    <![CDATA[
         var c=window.location.search.split('color=')[1]; c=parseInt(c,16); if(!isNaN(c)){c=c.toString(16);var p=document.getElementsByTagName('path');for(var i=0,l=p.length;i<l;i++){var s=p[i].style;s.fill='#'+c;} var p2=document.getElementsByTagName('polygon');for(var i=0,l=p2.length;i<l;i++){var s=p2[i].style;s.fill='#'+c;} var p3=document.getElementsByTagName('circle');for(var i=0,l=p3.length;i<l;i++){var s=p3[i].style;s.fill='#'+c;} }
        ]]>
</script>
</svg>
