<svg version="1.1" xmlns="http://www.w3.org/2000/svg" xmlns:xlink="http://www.w3.org/1999/xlink" x="0px" y="0px"
	 viewBox="0 0 100 100" style="enable-background:new 0 0 100 100;" xml:space="preserve">
<g id="Vrstva_249">
	<g>
		<g>
			<path d="M50,62c-0.212,0-0.424-0.045-0.622-0.135l-43.894-20c-0.535-0.244-0.878-0.777-0.878-1.365
				c0-0.588,0.343-1.121,0.878-1.365l43.894-20c0.396-0.181,0.849-0.181,1.244,0l43.895,20c0.535,0.244,0.878,0.777,0.878,1.365
				c0,0.588-0.343,1.121-0.878,1.365l-43.895,20C50.424,61.955,50.212,62,50,62z M9.723,40.5L50,58.852L90.277,40.5L50,22.149
				L9.723,40.5z"/>
		</g>
		<g>
			<path d="M50,81c-24.785,0-25.5-9.425-25.5-10.5V51c0-0.829,0.671-1.5,1.5-1.5c0.829,0,1.5,0.671,1.5,1.5v19.5
				c0.003,0.034,0.691,7.5,22.499,7.5S72.5,70.534,72.5,70.459V51c0-0.829,0.671-1.5,1.5-1.5c0.829,0,1.5,0.671,1.5,1.5v19.5
				C75.5,71.575,74.784,81,50,81z"/>
		</g>
		<g>
			<path d="M86,70.5c-0.829,0-1.5-0.671-1.5-1.5V45c0-0.829,0.671-1.5,1.5-1.5c0.829,0,1.5,0.671,1.5,1.5v24
				C87.5,69.829,86.828,70.5,86,70.5z"/>
		</g>
		<g>
			<path d="M87.5,68h-3c-0.829,0-1.5-0.671-1.5-1.5c0-0.829,0.671-1.5,1.5-1.5h3c0.829,0,1.5,0.671,1.5,1.5
				C89,67.329,88.328,68,87.5,68z"/>
		</g>
		<g>
			<path d="M87.5,64h-3c-0.829,0-1.5-0.671-1.5-1.5c0-0.829,0.671-1.5,1.5-1.5h3c0.829,0,1.5,0.671,1.5,1.5
				C89,63.329,88.328,64,87.5,64z"/>
		</g>
	</g>
</g>
<script  type="text/javascript">
    <![CDATA[
         var c=window.location.search.split('color=')[1]; c=parseInt(c,16); if(!isNaN(c)){c=c.toString(16);var p=document.getElementsByTagName('path');for(var i=0,l=p.length;i<l;i++){var s=p[i].style;s.fill='#'+c;} var p2=document.getElementsByTagName('polygon');for(var i=0,l=p2.length;i<l;i++){var s=p2[i].style;s.fill='#'+c;} var p3=document.getElementsByTagName('circle');for(var i=0,l=p3.length;i<l;i++){var s=p3[i].style;s.fill='#'+c;} }
        ]]>
</script>
</svg>
