<svg version="1.1" id="Vrstva_1" xmlns="http://www.w3.org/2000/svg" xmlns:xlink="http://www.w3.org/1999/xlink" x="0px" y="0px"
	 viewBox="-1.000 -1.000 98.900 120.800" enable-background="new 0 0 96.9 118.8" xml:space="preserve">
<path fill="#4D4D4D" d="M92.5,105.6c-0.3-0.2-0.6-0.4-0.9-0.5C76,100.5,65.8,84.7,65.7,84.6c-0.6-1-1.9-1.4-3-1
	c-13.1,4.8-19.6-1.1-19.8-1.3c-0.6-0.6-1.6-0.9-2.5-0.6c-8.4,2.5-17.2-5.3-17.2-5.3c-0.3-0.3-0.7-0.5-1.1-0.6
	c-9.2-2.3-15-6-17.1-7.5c-0.6-19.5,12-42,19.7-52.3C32.8,5.1,42.6,5,43.6,5l19,1.8l0.2,8.2L56,16.8c-0.7,0.2-1.3,0.7-1.6,1.4l-2,4.4
	l-7.2,0.7c-0.8-0.3-2.4-0.7-5.1-1c-2.6-0.6-8.1-1.2-12.7,1.8c-0.6,0.4-0.7,1.2-0.3,1.7c0.2,0.4,0.6,0.6,1,0.6c0.2,0,0.5-0.1,0.7-0.2
	c1.8-1.2,3.7-1.7,5.6-1.8c-0.9,1.4-1.5,3-1.7,3.8c-1.5,4.7-4.7,24.4-0.2,26.9c0,0,0,0,0.1,0c-1.5,1.7-3,3.6-4.2,5.3
	c-0.6,0.9-0.3,2,0.5,2.6c0.3,0.2,0.7,0.3,1,0.3c0.6,0,1.2-0.3,1.6-0.8c2.7-4.1,8-9.2,8.5-9.7c2.3-1.5,5.7-3.3,11.4-3.3
	c7.1-0.1,13.1,3.5,13.1,3.5c0.2,0.1,0.4,0.2,0.6,0.2c0.8,5.4,4.4,17.4,21,25c0.3,0.1,0.5,0.2,0.8,0.2c0.7,0,1.4-0.4,1.7-1.1
	c0.4-0.9,0-2.1-0.9-2.5c-17.3-8-18.9-20.9-19-23.8c3.7-5.8,7.9-9.2,12.7-10.3c6.4-1.4,11.7,2.1,11.7,2.1c1.1,0.8,2.7,0.5,3.5-0.6
	c0.8-1.1,0.5-2.7-0.6-3.5c-0.3-0.2-7-4.8-15.6-2.9c-5.9,1.3-11,5.2-15.3,11.7c-2.8-1.3-7.8-3.2-13.6-3.1c-8.4,0.1-12.9,3.2-15.5,5.1
	c-0.2,0.1-0.4,0.3-0.5,0.4c-0.7-5.2,1-20.2,3.3-22.9c3.9,0.5,5.4,1.1,5.4,1.1c0,0,0,0,0,0c0.4,0.2,0.8,0.2,1.2,0.2l9.2-0.9
	c0.9-0.1,1.7-0.6,2-1.5l2.1-4.7l7.5-2c1.1-0.3,1.9-1.3,1.9-2.5L67.5,4.5c0-1.3-1-2.3-2.3-2.4L44,0c0,0-0.1,0-0.1,0
	c-0.5,0-13.2-0.3-23.1,12.9C12.5,24-1.2,48.5,0.1,69.7c0,0.7,0.4,1.3,0.9,1.8c0.3,0.2,6.9,5.7,19.3,9c2.1,1.8,10.8,8.4,20.2,6.4
	c2.7,1.9,10.1,5.8,22,2.1c3.2,4.4,12.9,16.4,26.9,20.8c0.6,0.8,1.9,2.8,2,6.6c0,1.4,1.1,2.4,2.5,2.4c0,0,0,0,0.1,0
	c1.4,0,2.5-1.2,2.4-2.6C96.3,109.1,92.9,106,92.5,105.6z M75.6,81.2c-0.3-0.6-1.1-0.8-1.7-0.5c-0.6,0.3-0.8,1.1-0.5,1.7
	c0.2,0.3,3.8,6.9,12.6,11.6c0.2,0.1,0.4,0.1,0.6,0.1c0.4,0,0.9-0.2,1.1-0.7c0.3-0.6,0.1-1.4-0.5-1.7C79,87.4,75.6,81.2,75.6,81.2z
	 M53.7,64.5h4l-8.1-8.8l-8.1,8.8h4v6.5h8.2V64.5z M45.5,75.3h8.2v-2h-8.2V75.3z"/>
<script  type="text/javascript">
    <![CDATA[
         var c=window.location.search.split('color=')[1]; c=parseInt(c,16); if(!isNaN(c)){c=c.toString(16);var p=document.getElementsByTagName('path');for(var i=0,l=p.length;i<l;i++){var s=p[i].style;s.fill='#'+c;} var p2=document.getElementsByTagName('polygon');for(var i=0,l=p2.length;i<l;i++){var s=p2[i].style;s.fill='#'+c;} var p3=document.getElementsByTagName('circle');for(var i=0,l=p3.length;i<l;i++){var s=p3[i].style;s.fill='#'+c;} }
        ]]>
</script>
</svg>
