<svg version="1.1" xmlns="http://www.w3.org/2000/svg" xmlns:xlink="http://www.w3.org/1999/xlink" x="0px" y="0px"
	 viewBox="0 0 100 100" style="enable-background:new 0 0 100 100;" xml:space="preserve">
<g id="Vrstva_137">
	<g>
		<g>
			<g>
				<path d="M25,62.712c-7.443,0-13.499-6.056-13.499-13.499S17.557,35.714,25,35.714c7.443,0,13.499,6.056,13.499,13.499
					S32.443,62.712,25,62.712z M25,38.714c-5.789,0-10.499,4.71-10.499,10.499S19.211,59.712,25,59.712
					c5.789,0,10.499-4.71,10.499-10.499S30.789,38.714,25,38.714z"/>
			</g>
		</g>
		<g>
			<path d="M75,36.712c-7.443,0-13.499-6.056-13.499-13.499S67.557,9.714,75,9.714c7.443,0,13.499,6.056,13.499,13.499
				S82.443,36.712,75,36.712z M75,12.714c-5.789,0-10.499,4.71-10.499,10.499S69.211,33.712,75,33.712
				c5.789,0,10.499-4.71,10.499-10.499S80.789,12.714,75,12.714z"/>
		</g>
		<g>
			<path d="M37.132,43.287c-0.556,0-1.091-0.311-1.35-0.845c-0.362-0.745-0.053-1.643,0.692-2.005l25.304-12.304
				c0.748-0.362,1.644-0.052,2.005,0.693c0.362,0.745,0.053,1.642-0.692,2.005L37.787,43.136
				C37.575,43.238,37.352,43.287,37.132,43.287z"/>
		</g>
		<g>
			<g>
				<path d="M75,90.286c-7.443,0-13.499-6.056-13.499-13.499c0-7.443,6.056-13.499,13.499-13.499
					c7.443,0,13.499,6.056,13.499,13.499C88.499,84.23,82.443,90.286,75,90.286z M75,66.288c-5.789,0-10.499,4.71-10.499,10.499
					S69.211,87.286,75,87.286c5.789,0,10.499-4.71,10.499-10.499S80.789,66.288,75,66.288z"/>
			</g>
			<g>
				<path d="M62.434,72.018c-0.228,0-0.459-0.052-0.676-0.162L35.454,58.552c-0.739-0.374-1.036-1.276-0.662-2.016
					c0.375-0.738,1.277-1.035,2.016-0.661l26.304,13.304c0.739,0.373,1.036,1.276,0.662,2.016
					C63.509,71.717,62.981,72.018,62.434,72.018z"/>
			</g>
		</g>
	</g>
</g>
<script  type="text/javascript">
    <![CDATA[
         var c=window.location.search.split('color=')[1]; c=parseInt(c,16); if(!isNaN(c)){c=c.toString(16);var p=document.getElementsByTagName('path');for(var i=0,l=p.length;i<l;i++){var s=p[i].style;s.fill='#'+c;} var p2=document.getElementsByTagName('polygon');for(var i=0,l=p2.length;i<l;i++){var s=p2[i].style;s.fill='#'+c;} var p3=document.getElementsByTagName('circle');for(var i=0,l=p3.length;i<l;i++){var s=p3[i].style;s.fill='#'+c;} }
        ]]>
</script>
</svg>
