<?xml version="1.0" standalone="no"?>
<!DOCTYPE svg PUBLIC "-//W3C//DTD SVG 20010904//EN"
 "http://www.w3.org/TR/2001/REC-SVG-20010904/DTD/svg10.dtd">
<svg version="1.0" xmlns="http://www.w3.org/2000/svg"
 width="999.000000pt" height="698.000000pt" viewBox="0 0 999.000000 698.000000"
 preserveAspectRatio="xMidYMid meet">
<metadata>
Created by potrace 1.15, written by Peter Selinger 2001-2017
</metadata>
<g transform="translate(0.000000,698.000000) scale(0.100000,-0.100000)"
fill="#000000" stroke="none">
<path d="M4982 6110 c2 -127 1 -230 -2 -230 -3 1 -35 45 -71 98 -36 53 -110
153 -164 221 l-99 124 -84 -6 c-47 -4 -86 -8 -88 -10 -2 -2 9 -121 24 -266 19
-180 32 -265 41 -270 10 -6 10 -10 2 -12 -18 -6 -3 -159 15 -159 7 0 15 4 18
8 3 5 30 7 61 4 l55 -4 0 53 c0 30 -7 133 -15 229 -8 96 -12 176 -10 178 6 6
149 -183 238 -315 l82 -122 76 -1 76 0 6 233 c4 127 7 287 7 355 l0 122 -86 0
-85 0 3 -230z"/>
<path d="M5292 6073 c-7 -142 -15 -301 -19 -354 l-6 -96 89 -7 c114 -9 352
-36 381 -42 19 -5 22 -1 28 51 4 31 5 58 3 61 -3 2 -61 11 -129 19 -68 9 -143
18 -167 21 l-43 5 7 87 c3 48 9 90 13 94 5 6 201 -12 278 -25 19 -4 24 1 28
32 4 20 8 45 10 57 4 19 -2 22 -78 32 -45 7 -115 15 -154 18 l-73 7 0 52 c0
29 3 67 6 85 l7 32 66 -6 c36 -4 119 -14 184 -22 65 -9 120 -14 122 -12 3 2 7
29 11 60 l6 55 -93 12 c-132 17 -376 41 -425 41 l-40 0 -12 -257z"/>
<path d="M4330 6293 c-14 -2 -83 -13 -155 -24 -152 -23 -457 -87 -468 -98 -11
-11 14 -111 29 -111 7 0 60 12 119 26 59 14 109 23 112 21 2 -3 30 -131 62
-286 32 -155 60 -283 62 -285 4 -4 43 2 125 19 21 5 21 6 -27 287 -27 156 -47
288 -45 294 2 6 44 16 93 23 162 22 152 18 147 59 -9 61 -14 82 -22 81 -4 -1
-18 -4 -32 -6z"/>
<path d="M6049 6204 c-63 -19 -115 -77 -124 -138 -14 -90 44 -163 205 -258
129 -76 149 -100 129 -157 -13 -38 -56 -56 -111 -47 -89 14 -138 54 -143 118
-2 31 -5 33 -61 45 -73 15 -94 16 -94 3 0 -5 15 -10 33 -11 l32 -1 -32 -14
c-39 -16 -41 -32 -12 -90 40 -84 136 -143 267 -166 126 -21 221 12 262 92 22
43 26 113 9 157 -17 47 -89 112 -186 169 -134 79 -164 128 -105 174 55 44 191
8 219 -58 8 -19 12 -40 9 -48 -4 -9 8 -17 37 -24 23 -6 55 -15 71 -20 55 -19
59 -16 54 49 -5 74 -45 137 -100 159 -21 8 -35 18 -33 22 12 19 -142 60 -225
59 -30 0 -76 -7 -101 -15z"/>
<path d="M3526 6124 c-44 -13 -81 -25 -83 -27 -4 -5 197 -659 206 -669 9 -10
134 25 138 39 3 8 -174 674 -180 679 -1 1 -38 -9 -81 -22z"/>
<path d="M3195 6016 c-100 -36 -354 -139 -376 -152 -13 -7 155 -364 174 -370
13 -4 16 -11 11 -26 -7 -23 92 -248 110 -248 6 0 39 12 73 26 l61 26 -54 131
c-48 115 -53 133 -39 143 8 6 73 32 144 59 l129 47 -18 51 c-10 28 -22 53 -27
54 -5 2 -72 -21 -150 -50 l-142 -54 -30 71 c-16 39 -31 77 -33 84 -3 13 89 54
264 116 l76 27 -17 52 c-10 28 -22 52 -27 53 -5 2 -63 -16 -129 -40z"/>
<path d="M6710 6009 c-77 -31 -121 -118 -99 -198 13 -47 59 -98 223 -246 75
-68 84 -98 41 -140 -31 -32 -74 -32 -142 0 -63 29 -96 74 -89 122 4 31 4 32
-69 56 -40 14 -76 23 -79 19 -13 -12 -4 -110 13 -147 25 -55 99 -120 179 -158
61 -29 76 -32 163 -32 89 0 98 2 132 28 71 54 92 133 57 215 -21 50 -61 92
-204 215 -31 27 -59 61 -63 75 -3 15 -10 30 -16 33 -12 8 1 31 13 24 5 -3 21
2 35 11 30 20 87 14 145 -16 49 -25 70 -55 70 -101 0 -36 1 -37 73 -67 45 -19
76 -27 82 -21 17 17 10 112 -12 154 -56 106 -206 185 -353 184 -41 0 -86 -5
-100 -10z"/>
<path d="M4745 5350 c-252 -19 -478 -55 -718 -116 -113 -29 -341 -101 -408
-128 -12 -5 -19 3 -29 34 -7 23 -17 43 -22 46 -5 3 -31 0 -58 -7 -37 -9 -50
-18 -52 -33 -2 -13 -9 -20 -19 -18 -27 4 -154 -71 -157 -93 -2 -11 -18 -30
-37 -43 -23 -14 -35 -30 -35 -45 0 -18 -20 -33 -102 -77 -130 -70 -295 -173
-410 -256 -92 -66 -104 -72 -110 -52 -2 6 -51 -21 -115 -65 l-111 -77 -152
222 c-84 123 -156 227 -160 231 -7 8 -220 -127 -220 -139 0 -3 17 -30 39 -60
l38 -53 85 59 86 59 35 -54 36 -54 -85 -58 c-55 -37 -80 -59 -70 -61 10 -2 28
3 41 12 35 23 47 20 33 -8 -7 -17 -20 -26 -40 -28 -29 -3 -25 -9 278 -450
l306 -446 104 71 c58 40 105 76 105 80 0 4 -62 98 -138 209 -76 111 -146 213
-155 228 l-17 26 79 54 c44 29 80 61 81 69 0 10 2 11 6 4 3 -9 11 -8 29 3 l24
16 -22 36 -22 35 30 24 c123 98 502 329 516 315 21 -21 7 -55 -69 -182 -66
-110 -95 -173 -157 -340 l-76 -204 0 -111 c0 -60 -5 -144 -12 -187 l-11 -76
32 -40 c17 -23 47 -50 65 -62 22 -13 59 -60 106 -135 69 -112 75 -117 233
-248 89 -73 168 -137 175 -141 8 -5 72 -18 143 -31 104 -18 139 -20 171 -12
45 11 38 16 88 -73 14 -25 34 -49 45 -54 11 -5 31 -31 45 -58 16 -32 29 -47
38 -43 11 4 13 0 9 -17 -4 -15 10 -52 45 -118 47 -87 59 -101 125 -150 l73
-54 0 -65 c0 -45 7 -80 21 -111 39 -83 39 -87 20 -112 -14 -19 -41 -91 -41
-112 0 -9 108 -61 188 -90 72 -26 241 -61 250 -51 2 2 -13 24 -35 49 -35 39
-41 54 -47 107 -10 104 -7 139 14 166 25 32 25 40 2 47 -15 5 -21 24 -30 95
-15 111 -15 111 3 111 9 0 51 18 95 40 l80 40 82 -33 81 -34 80 34 80 34 65
-31 c35 -16 69 -30 74 -30 5 0 16 -6 24 -14 7 -8 18 -16 23 -18 6 -2 6 -34 0
-88 -8 -65 -15 -89 -30 -102 -23 -19 -16 -42 9 -34 32 10 40 -32 27 -143 -13
-103 -16 -110 -69 -170 l-31 -33 50 6 c88 12 198 46 293 91 50 24 92 45 92 47
-1 20 -34 106 -46 119 -15 17 -14 24 15 93 23 55 31 90 31 134 l0 60 75 56
c74 55 75 58 150 206 52 103 85 156 106 171 16 11 43 47 59 80 32 62 36 64 86
50 22 -6 61 -3 130 11 54 10 110 19 123 19 32 -1 48 10 234 162 155 127 184
158 172 177 -10 17 -21 11 -36 -19 -13 -26 -76 -82 -266 -234 -70 -57 -74 -59
-170 -73 -64 -10 -126 -13 -179 -9 l-81 6 -22 -51 c-12 -28 -41 -68 -67 -92
-30 -28 -61 -73 -91 -131 -24 -49 -46 -87 -49 -84 -3 3 17 50 45 104 33 67 61
108 84 126 23 17 44 48 62 92 21 48 32 64 44 61 57 -15 141 -16 237 -1 l107
17 161 130 161 131 64 112 c57 102 68 115 117 143 68 39 71 32 4 -9 -43 -27
-57 -43 -91 -111 -36 -71 -41 -98 -21 -98 4 0 29 36 56 80 33 55 64 91 98 115
40 29 48 40 42 57 -5 17 -3 20 10 15 28 -11 39 27 27 97 -6 35 -11 114 -11
177 l1 114 -73 197 c-52 143 -77 200 -90 204 -13 4 -17 12 -13 25 4 13 -17 57
-68 142 -61 102 -73 129 -69 155 2 18 9 32 14 32 30 0 427 -246 547 -339 l24
-18 -21 -34 -21 -34 36 -25 c20 -14 69 -48 109 -76 l73 -50 -129 -188 c-71
-104 -127 -193 -123 -199 3 -5 1 -7 -4 -4 -6 4 -22 -11 -37 -33 l-26 -39 103
-70 c56 -39 105 -72 109 -73 11 -4 639 915 631 922 -5 4 -43 31 -86 60 -54 37
-75 56 -67 64 14 14 13 34 -2 39 -7 2 -4 3 8 1 14 -2 26 6 38 27 l17 29 31
-21 c23 -17 32 -19 38 -9 5 8 10 8 14 2 3 -6 1 -12 -6 -14 -7 -3 12 -21 41
-41 l54 -36 39 54 c21 29 38 56 38 58 0 5 -205 147 -213 147 -2 0 -75 -103
-162 -230 l-158 -230 -110 76 c-62 43 -113 71 -115 65 -7 -20 -20 -13 -135 68
-130 92 -248 165 -401 247 -61 33 -111 67 -114 76 -2 10 -19 27 -37 38 -18 11
-36 32 -39 45 -5 18 -25 34 -76 60 -38 19 -75 34 -82 33 -7 -2 -14 6 -16 18
-2 15 -15 24 -52 33 -58 15 -65 12 -80 -34 -6 -19 -13 -35 -15 -35 -1 0 -32
11 -68 25 -73 27 -301 95 -332 99 -12 1 -25 5 -31 8 -12 8 -287 61 -394 77
-220 32 -580 46 -795 31z m692 -164 c265 -35 485 -84 710 -157 109 -35 125
-43 110 -54 -13 -10 -17 -28 -17 -89 l0 -77 56 -52 c31 -29 66 -56 78 -62 11
-5 23 -12 26 -16 3 -3 20 -14 37 -23 48 -24 72 -81 94 -223 l19 -124 -24 -42
c-23 -40 -61 -218 -68 -321 -5 -62 -29 -71 -105 -36 l-62 28 -166 -56 c-164
-56 -166 -57 -191 -99 -14 -24 -28 -43 -32 -43 -4 0 -32 7 -62 15 -30 8 -79
15 -108 15 -47 0 -56 4 -82 33 -24 27 -50 40 -152 72 -68 21 -128 44 -135 52
-10 12 -13 11 -24 -9 -6 -13 -36 -53 -66 -90 -44 -55 -71 -76 -141 -114 -48
-26 -88 -47 -88 -48 -1 -1 -4 -29 -8 -63 -6 -57 -5 -63 11 -63 12 0 35 30 71
95 44 78 58 95 78 95 23 0 23 -1 9 -40 -8 -22 -12 -40 -8 -40 3 0 1 -6 -4 -12
-18 -23 -44 -115 -37 -134 4 -12 3 -15 -3 -7 -15 21 -123 -336 -123 -406 0 -2
7 2 15 9 8 7 15 27 15 44 0 47 53 122 110 157 42 26 56 43 90 112 23 45 42 82
44 84 8 9 77 32 72 25 -3 -5 -19 -15 -35 -21 -22 -10 -37 -31 -65 -91 -28 -60
-46 -84 -76 -104 -53 -35 -51 -44 3 -12 31 18 53 44 85 100 40 70 49 79 112
112 44 23 83 53 110 85 23 27 48 49 56 49 8 0 12 5 9 10 -11 17 -42 11 -59
-12 -23 -34 -69 -85 -61 -68 5 8 15 23 23 33 8 9 12 17 8 17 -4 0 5 10 21 23
26 22 226 77 276 77 10 0 41 -12 68 -26 l51 -26 -6 -41 c-8 -48 -17 -61 -54
-76 -15 -6 -47 -41 -73 -79 -36 -52 -51 -85 -64 -147 -10 -44 -33 -125 -51
-179 -19 -55 -32 -102 -29 -104 3 -3 1 -10 -4 -16 -4 -6 -23 -54 -40 -107
l-32 -96 -130 -47 -131 -47 -82 40 c-45 23 -87 41 -93 41 -6 0 -30 16 -53 35
-56 47 -64 45 -55 -12 4 -27 8 -49 10 -51 2 -2 29 -7 62 -12 39 -5 63 -4 72 4
11 8 13 8 8 -1 -8 -13 60 -66 74 -58 4 3 10 -2 13 -10 5 -13 18 -15 83 -9 43
4 94 15 114 25 l36 18 31 -43 c22 -30 47 -50 82 -65 28 -12 48 -25 46 -30 -3
-4 -29 -26 -58 -48 -38 -29 -73 -45 -125 -58 l-72 -17 -118 71 c-99 59 -132
74 -197 86 -69 13 -89 13 -161 1 -71 -13 -96 -23 -200 -86 l-118 -71 -71 17
c-66 16 -185 85 -186 107 0 4 22 17 49 28 34 15 59 34 81 65 l31 44 37 -19
c20 -10 70 -21 110 -25 73 -7 74 -7 135 32 39 25 85 44 124 52 61 12 63 14 74
52 6 22 8 42 6 44 -10 10 -56 -16 -62 -35 -4 -15 -23 -26 -63 -37 -31 -9 -82
-30 -113 -47 l-57 -30 -132 49 -132 49 -59 180 c-33 99 -72 230 -88 291 -32
127 -85 217 -150 258 -29 19 -41 34 -49 66 -9 38 -8 42 14 55 13 8 35 22 49
30 33 20 41 20 184 -12 l124 -27 39 -52 c31 -41 55 -60 113 -87 73 -35 74 -36
114 -115 33 -67 48 -84 91 -112 58 -37 110 -115 110 -166 0 -20 6 -34 16 -38
11 -4 14 -1 10 12 -3 9 -10 48 -17 86 -6 38 -47 174 -90 303 -67 200 -75 233
-60 233 12 0 -10 30 -68 90 -50 52 -94 90 -105 90 -11 0 -69 -16 -130 -36 -84
-27 -119 -44 -146 -69 -30 -29 -43 -34 -90 -36 -30 -1 -79 -9 -107 -16 -29 -8
-57 -12 -62 -8 -6 3 -20 23 -31 43 -21 37 -27 40 -188 93 l-167 56 -63 -29
c-61 -28 -65 -28 -83 -12 -11 10 -19 30 -19 51 0 74 -43 278 -68 321 l-24 43
18 117 c23 156 47 203 118 239 30 16 81 54 115 85 l61 57 0 80 c0 47 -4 81
-10 81 -55 0 110 60 330 120 167 45 452 92 690 114 99 9 589 -4 697 -18z
m-2038 -182 c21 -50 26 -55 47 -50 27 7 31 -5 9 -24 -9 -7 -13 -20 -10 -29 4
-12 -5 -20 -31 -30 -19 -7 -37 -11 -39 -9 -7 8 -75 148 -75 155 0 10 50 42 66
43 6 0 21 -25 33 -56z m3242 39 c16 -10 29 -21 29 -25 0 -7 -67 -147 -75 -156
-2 -2 -67 18 -73 23 -7 6 72 175 81 175 5 0 22 -8 38 -17z m-3221 -488 c0 -9
-10 -55 -21 -103 -17 -70 -28 -93 -54 -119 -19 -18 -39 -50 -45 -70 -18 -56
-26 -59 -38 -12 -10 41 -9 45 61 180 65 125 97 166 97 124z m3222 -121 c61
-114 68 -134 63 -168 -9 -61 -16 -63 -36 -11 -10 27 -32 63 -49 80 -24 25 -37
54 -55 126 -23 91 -24 114 -2 106 6 -2 41 -61 79 -133z m-3252 -156 c7 -30 24
-65 39 -81 23 -25 27 -41 37 -135 10 -96 9 -111 -7 -143 -17 -35 -77 -89 -99
-89 -6 0 -27 12 -46 28 l-34 27 0 131 c0 130 1 133 36 210 32 71 51 104 59
104 2 0 9 -24 15 -52z m3264 -56 c35 -81 36 -88 36 -208 0 -124 0 -125 -27
-149 -16 -14 -36 -27 -45 -30 -24 -8 -85 40 -108 85 -17 34 -18 46 -8 141 9
92 14 108 39 137 16 18 29 38 29 45 0 7 5 29 11 51 9 33 13 37 24 25 8 -8 30
-52 49 -97z m-3413 -34 c16 -59 5 -313 -17 -382 -9 -29 -29 -67 -44 -86 l-28
-34 -58 63 c-33 35 -62 69 -65 75 -3 6 11 76 33 156 l39 145 57 52 c31 29 60
53 64 53 4 0 12 -19 19 -42z m3569 -11 c51 -48 57 -59 75 -130 10 -42 23 -77
28 -77 4 0 6 -4 2 -9 -3 -6 2 -37 11 -70 l17 -59 -63 -72 -63 -71 -27 26 c-37
36 -70 145 -70 233 0 41 -4 72 -10 72 -5 0 -10 7 -10 15 0 8 5 15 11 15 8 0
10 14 6 44 -4 25 -2 60 4 78 6 18 12 39 15 46 6 20 16 14 74 -41z m-2830 -402
c10 -20 15 -60 15 -123 0 -79 -3 -95 -17 -103 -10 -6 -18 -18 -18 -27 0 -16
-10 -17 -100 -14 -54 2 -112 0 -128 -6 -25 -9 -43 -4 -131 36 -84 38 -101 49
-101 68 0 12 -7 44 -16 72 l-16 50 28 37 c18 24 56 51 112 79 l85 43 136 -42
c122 -37 138 -44 151 -70z m2495 -14 c25 -38 26 -40 11 -76 -9 -21 -16 -50
-16 -66 0 -33 -5 -37 -119 -88 -72 -32 -90 -37 -120 -30 -20 5 -71 9 -114 9
-68 0 -83 3 -112 25 -31 24 -33 30 -37 98 -4 55 0 85 14 125 11 28 24 52 28
52 6 0 5 -11 0 -26 -15 -39 -11 -63 5 -27 9 22 23 34 42 39 15 3 69 16 118 29
l90 23 69 -29 c38 -16 71 -28 73 -26 2 3 -28 21 -68 42 -67 35 -73 36 -114 26
-65 -16 -68 -12 -5 9 l55 17 86 -44 c63 -32 94 -54 114 -82z m-3310 -318 l67
-118 157 -125 156 -125 100 -17 c73 -13 120 -16 175 -11 41 4 79 7 83 8 5 0
20 -27 33 -59 15 -38 37 -71 60 -89 24 -20 54 -68 95 -149 33 -66 59 -122 57
-123 -2 -2 -30 46 -62 106 -37 71 -74 125 -101 150 -24 22 -52 62 -64 90 l-22
50 -82 -6 c-54 -4 -116 -1 -180 9 l-98 15 -102 82 c-215 175 -221 182 -287
304 -45 86 -68 119 -95 135 -47 29 -45 35 4 11 32 -17 50 -40 106 -138z m1259
-661 c3 -5 -6 -25 -20 -46 l-26 -37 -66 6 c-107 10 -112 12 -112 44 0 28 1 29
93 43 86 13 118 11 131 -10z m1264 7 c80 -12 82 -13 82 -40 0 -31 -2 -31 -122
-44 l-56 -6 -26 37 c-24 35 -24 39 -9 56 9 10 23 16 32 14 9 -3 53 -10 99 -17z"/>
<path d="M4875 4832 c-95 -29 -150 -61 -185 -105 -20 -25 -20 -31 -10 -107 9
-68 8 -93 -5 -156 -13 -57 -21 -74 -34 -74 -21 0 -52 -51 -35 -57 7 -2 10 -12
7 -23 -5 -20 15 -92 28 -101 5 -3 4 -21 -1 -39 -6 -19 -10 -79 -10 -133 0 -94
1 -100 33 -146 68 -101 244 -222 321 -221 47 1 158 60 225 119 94 83 131 143
131 208 0 64 -10 114 -21 107 -5 -3 -9 0 -9 5 0 6 5 11 11 11 8 0 10 14 6 40
-3 27 0 51 11 73 9 18 17 56 17 86 0 43 -4 56 -20 65 -11 6 -23 15 -27 20 -8
11 -33 137 -30 149 1 5 6 35 11 68 6 47 5 59 -6 59 -7 0 -13 5 -13 10 0 6 8
10 17 10 13 0 12 5 -8 26 -45 49 -104 81 -196 108 -50 14 -98 26 -105 25 -7 0
-53 -12 -103 -27z m22 -216 c64 -14 161 -9 233 13 46 15 45 15 59 -16 10 -22
10 -24 -1 -16 -22 19 -16 -104 7 -125 16 -16 17 -16 6 5 -6 12 -11 37 -10 55
l1 33 7 -30 c4 -16 13 -40 20 -53 21 -39 7 -55 -39 -47 -32 5 -54 1 -105 -20
-70 -30 -68 -27 -81 -138 -6 -56 -8 -59 -46 -74 -52 -21 -35 -38 37 -37 59 1
78 10 55 24 -12 7 -12 16 3 62 15 48 20 54 57 66 22 6 50 12 62 12 18 0 20 2
8 10 -18 11 -14 15 23 24 28 7 29 6 22 -23 -3 -17 -2 -32 4 -36 6 -3 11 -26
11 -49 0 -35 -5 -47 -23 -59 -13 -9 -30 -29 -37 -46 -14 -34 -48 -42 -70 -16
-17 21 -213 21 -230 0 -23 -28 -59 -18 -77 20 -9 20 -27 38 -39 41 -18 5 -22
13 -22 47 -1 23 6 53 14 66 12 17 13 26 5 34 -18 18 -14 39 7 28 9 -5 31 -11
49 -14 38 -6 55 -15 48 -27 -8 -13 34 -23 48 -12 7 6 20 24 29 40 l18 30 -65
26 c-51 20 -75 25 -107 20 l-41 -7 7 34 c4 19 10 57 14 84 10 65 31 98 57 90
11 -3 48 -12 82 -19z"/>
<path d="M1686 4640 c-54 -38 -100 -71 -103 -74 -4 -4 66 -116 73 -116 3 0
199 134 213 146 4 4 -72 114 -79 113 -3 0 -49 -31 -104 -69z"/>
<path d="M8166 4654 c-21 -31 -36 -57 -34 -59 31 -29 213 -144 217 -138 3 5
21 31 40 57 18 26 29 51 25 55 -16 14 -203 141 -207 141 -2 0 -21 -25 -41 -56z"/>
<path d="M1450 4479 c-47 -33 -94 -66 -105 -73 -19 -13 -18 -15 19 -70 22 -31
41 -56 43 -56 9 0 208 142 208 148 0 10 -69 112 -75 111 -3 -1 -43 -28 -90
-60z"/>
<path d="M8416 4484 c-21 -31 -34 -59 -30 -63 16 -14 202 -141 207 -141 6 0
79 111 75 114 -13 11 -209 146 -211 146 -1 -1 -19 -26 -41 -56z"/>
<path d="M1845 4424 c-49 -36 -96 -68 -104 -73 -10 -6 66 -123 304 -469 l317
-461 61 41 c34 23 83 56 109 75 l46 34 -222 322 c-122 177 -264 384 -316 460
-52 75 -96 137 -99 136 -3 0 -46 -30 -96 -65z"/>
<path d="M7859 4207 c-106 -155 -249 -362 -316 -460 -96 -138 -118 -177 -101
-172 18 5 20 4 8 -4 -10 -7 -11 -14 -5 -18 6 -5 52 -36 102 -70 l91 -62 316
461 c175 253 316 461 314 463 -7 6 -194 132 -204 138 -6 4 -92 -111 -205 -276z"/>
<path d="M1187 4297 c-59 -39 -107 -74 -107 -77 0 -3 158 -235 350 -515 245
-357 357 -511 371 -513 14 -3 19 -9 14 -19 -3 -9 6 -33 20 -55 30 -45 20 -48
152 44 l91 64 -285 414 c-157 228 -299 436 -317 462 l-32 47 -86 -60 -85 -59
-36 54 -35 53 84 58 84 58 -17 26 c-9 14 -26 41 -38 58 l-22 33 -106 -73z"/>
<path d="M8670 4317 c-19 -29 -36 -55 -38 -58 -2 -4 35 -32 82 -64 l84 -58
-35 -53 -35 -53 -87 58 -87 59 -67 -99 c-39 -56 -65 -104 -61 -111 4 -6 3 -8
-4 -4 -6 4 -106 -133 -249 -341 -131 -190 -241 -351 -245 -357 -4 -7 37 -41
100 -84 84 -57 109 -70 118 -60 16 18 765 1109 770 1122 3 9 -66 61 -185 138
l-26 17 -35 -52z"/>
<path d="M1599 4254 c-52 -36 -100 -69 -108 -73 -11 -7 59 -115 294 -457 169
-247 313 -455 319 -461 9 -10 34 3 114 58 56 39 102 75 102 80 0 6 -606 896
-624 916 -1 2 -45 -27 -97 -63z"/>
<path d="M7987 3858 l-316 -461 82 -57 c45 -31 94 -64 109 -74 l26 -17 66 96
c36 54 66 101 66 105 0 5 4 10 8 12 9 3 492 703 492 712 0 4 -6 6 -14 6 -8 0
-16 4 -18 8 -3 7 -142 107 -174 125 -6 3 -148 -195 -327 -455z"/>
<path d="M1126 4035 c-10 -8 -16 -20 -13 -27 3 -7 57 -87 120 -178 96 -138
112 -167 101 -179 -19 -21 59 -135 86 -126 15 5 40 -25 135 -164 64 -94 120
-173 125 -176 11 -7 50 16 50 30 -1 15 -563 828 -575 831 -6 2 -18 -3 -29 -11z"/>
<path d="M8828 4033 c-28 -34 -558 -811 -558 -820 0 -4 10 -14 21 -21 27 -17
21 -25 159 176 90 132 115 162 130 157 28 -9 105 106 85 126 -11 12 5 40 102
179 63 91 117 171 120 178 3 7 -3 19 -13 27 -25 19 -28 18 -46 -2z"/>
<path d="M4986 2419 c-3 -18 -6 -48 -6 -68 0 -22 -10 -51 -25 -73 -30 -44 -74
-54 -178 -40 -55 7 -66 6 -55 -4 21 -21 175 -56 214 -48 31 6 34 4 34 -17 0
-13 4 -30 9 -38 7 -11 11 -10 20 7 6 11 11 27 11 36 0 22 12 26 52 17 38 -9
188 24 188 41 0 10 -5 10 -55 -2 -55 -13 -122 5 -163 44 -33 31 -34 32 -27 98
6 68 -7 103 -19 47z"/>
<path d="M2845 1550 c-321 -28 -536 -133 -613 -297 -24 -52 -27 -70 -27 -163
0 -93 3 -111 26 -160 72 -149 249 -246 534 -291 102 -17 471 -17 590 -1 144
20 244 42 333 74 l82 30 0 184 0 184 -375 0 -375 0 0 -70 0 -70 180 0 181 0
-3 -77 -3 -76 -39 -14 c-72 -24 -263 -37 -372 -25 -179 21 -270 63 -321 149
-25 43 -28 59 -33 164 -3 64 -2 120 3 125 4 5 21 28 38 52 66 94 177 133 378
133 165 0 266 -26 315 -80 11 -12 24 -21 31 -21 6 0 11 -10 11 -22 -1 -23 -1
-23 193 -26 l193 -2 -6 27 c-29 120 -203 222 -441 258 -118 17 -366 26 -480
15z"/>
<path d="M4244 1253 l315 -288 1 -167 0 -168 200 0 200 0 0 168 1 167 139 125
c78 70 137 131 135 138 -3 7 1 11 9 10 7 -2 88 66 180 150 l167 152 -218 0
-218 0 -197 -202 -198 -203 -197 203 -198 203 -218 -1 -218 0 315 -287z"/>
<path d="M5770 1085 l0 -455 198 2 197 3 3 124 3 123 -31 -4 c-38 -6 -40 8 -2
17 l28 6 -18 192 c-10 106 -17 195 -15 200 1 4 117 -142 258 -325 l255 -333
135 -3 134 -3 254 331 c140 182 258 333 262 336 4 2 6 -10 3 -28 -16 -117 -34
-387 -34 -502 l0 -136 198 2 197 3 3 354 c2 253 -1 358 -9 367 -8 10 -8 14 0
14 7 0 11 29 11 85 l0 85 -264 0 -264 0 -242 -325 c-172 -232 -245 -323 -254
-316 -6 5 -117 152 -246 325 l-235 315 -262 1 -263 0 0 -455z"/>
</g>
</svg>
