<?xml version="1.0" encoding="UTF-8"?>
<svg xmlns="http://www.w3.org/2000/svg" xmlns:xlink="http://www.w3.org/1999/xlink" width="80pt" height="56pt" viewBox="0 0 80 56" version="1.1">
<g id="surface1">
<path style=" stroke:none;fill-rule:nonzero;fill:rgb(0%,0%,0%);fill-opacity:1;" d="M 39.886719 6.976562 C 39.902344 7.996094 39.894531 8.820312 39.871094 8.820312 C 39.847656 8.8125 39.589844 8.460938 39.304688 8.035156 C 39.015625 7.609375 38.421875 6.808594 37.992188 6.261719 L 37.199219 5.269531 L 36.523438 5.316406 C 36.148438 5.347656 35.835938 5.378906 35.820312 5.394531 C 35.804688 5.414062 35.894531 6.367188 36.011719 7.527344 C 36.164062 8.972656 36.269531 9.652344 36.339844 9.695312 C 36.421875 9.742188 36.421875 9.773438 36.355469 9.789062 C 36.214844 9.839844 36.332031 11.066406 36.476562 11.066406 C 36.535156 11.066406 36.597656 11.035156 36.621094 11 C 36.644531 10.960938 36.863281 10.945312 37.109375 10.96875 L 37.550781 11 L 37.550781 10.578125 C 37.550781 10.335938 37.492188 9.507812 37.429688 8.738281 C 37.367188 7.96875 37.332031 7.328125 37.351562 7.3125 C 37.398438 7.265625 38.542969 8.78125 39.253906 9.839844 L 39.910156 10.816406 L 40.519531 10.824219 L 41.128906 10.824219 L 41.175781 8.957031 C 41.207031 7.9375 41.234375 6.65625 41.234375 6.109375 L 41.234375 5.132812 L 39.863281 5.132812 Z M 39.886719 6.976562 "/>
<path style=" stroke:none;fill-rule:nonzero;fill:rgb(0%,0%,0%);fill-opacity:1;" d="M 42.371094 7.273438 C 42.3125 8.410156 42.25 9.6875 42.21875 10.109375 L 42.167969 10.882812 L 42.882812 10.9375 C 43.796875 11.007812 45.699219 11.226562 45.933594 11.273438 C 46.085938 11.3125 46.109375 11.28125 46.15625 10.863281 C 46.1875 10.617188 46.195312 10.398438 46.179688 10.375 C 46.15625 10.359375 45.691406 10.289062 45.148438 10.222656 C 44.605469 10.152344 44.003906 10.078125 43.8125 10.054688 L 43.464844 10.015625 L 43.523438 9.316406 C 43.546875 8.933594 43.59375 8.59375 43.625 8.5625 C 43.667969 8.515625 45.234375 8.660156 45.851562 8.765625 C 46.003906 8.796875 46.042969 8.757812 46.078125 8.507812 C 46.109375 8.347656 46.140625 8.148438 46.15625 8.050781 C 46.1875 7.898438 46.140625 7.875 45.53125 7.792969 C 45.171875 7.738281 44.613281 7.671875 44.300781 7.648438 L 43.714844 7.59375 L 43.714844 7.175781 C 43.714844 6.945312 43.738281 6.640625 43.761719 6.496094 L 43.820312 6.238281 L 44.347656 6.285156 C 44.636719 6.320312 45.300781 6.398438 45.820312 6.460938 C 46.339844 6.535156 46.78125 6.574219 46.796875 6.558594 C 46.820312 6.542969 46.851562 6.328125 46.886719 6.078125 L 46.933594 5.636719 L 46.1875 5.539062 C 45.132812 5.40625 43.179688 5.210938 42.785156 5.210938 L 42.464844 5.210938 Z M 42.371094 7.273438 "/>
<path style=" stroke:none;fill-rule:nonzero;fill:rgb(0%,0%,0%);fill-opacity:1;" d="M 34.667969 5.507812 C 34.554688 5.523438 34.003906 5.613281 33.425781 5.699219 C 32.210938 5.886719 29.769531 6.398438 29.679688 6.488281 C 29.589844 6.574219 29.792969 7.375 29.910156 7.375 C 29.96875 7.375 30.390625 7.28125 30.863281 7.167969 C 31.335938 7.054688 31.738281 6.984375 31.761719 7 C 31.777344 7.023438 32 8.050781 32.257812 9.292969 C 32.515625 10.535156 32.738281 11.5625 32.753906 11.578125 C 32.785156 11.609375 33.097656 11.5625 33.753906 11.425781 C 33.921875 11.386719 33.921875 11.378906 33.539062 9.125 C 33.324219 7.875 33.164062 6.816406 33.179688 6.765625 C 33.195312 6.71875 33.53125 6.640625 33.921875 6.582031 C 35.21875 6.40625 35.140625 6.4375 35.101562 6.109375 C 35.027344 5.621094 34.988281 5.453125 34.925781 5.460938 C 34.890625 5.46875 34.78125 5.492188 34.667969 5.507812 Z M 34.667969 5.507812 "/>
<path style=" stroke:none;fill-rule:nonzero;fill:rgb(0%,0%,0%);fill-opacity:1;" d="M 48.429688 6.222656 C 47.925781 6.375 47.511719 6.839844 47.4375 7.328125 C 47.324219 8.050781 47.789062 8.636719 49.078125 9.398438 C 50.113281 10.007812 50.273438 10.199219 50.113281 10.65625 C 50.007812 10.960938 49.664062 11.105469 49.222656 11.035156 C 48.511719 10.921875 48.117188 10.601562 48.078125 10.085938 C 48.0625 9.839844 48.039062 9.824219 47.589844 9.726562 C 47.003906 9.605469 46.835938 9.597656 46.835938 9.703125 C 46.835938 9.742188 46.957031 9.78125 47.101562 9.789062 L 47.359375 9.796875 L 47.101562 9.910156 C 46.789062 10.039062 46.773438 10.167969 47.003906 10.632812 C 47.324219 11.304688 48.09375 11.777344 49.144531 11.964844 C 50.152344 12.132812 50.914062 11.867188 51.242188 11.226562 C 51.417969 10.882812 51.449219 10.320312 51.3125 9.964844 C 51.175781 9.589844 50.601562 9.070312 49.824219 8.613281 C 48.75 7.976562 48.511719 7.585938 48.984375 7.214844 C 49.421875 6.863281 50.511719 7.152344 50.738281 7.679688 C 50.800781 7.832031 50.832031 8.003906 50.808594 8.066406 C 50.777344 8.136719 50.871094 8.203125 51.105469 8.257812 C 51.289062 8.308594 51.546875 8.378906 51.671875 8.417969 C 52.113281 8.570312 52.144531 8.546875 52.105469 8.027344 C 52.066406 7.433594 51.746094 6.929688 51.304688 6.75 C 51.136719 6.6875 51.023438 6.605469 51.039062 6.574219 C 51.136719 6.421875 49.902344 6.09375 49.238281 6.101562 C 49 6.101562 48.632812 6.15625 48.429688 6.222656 Z M 48.429688 6.222656 "/>
<path style=" stroke:none;fill-rule:nonzero;fill:rgb(0%,0%,0%);fill-opacity:1;" d="M 28.230469 6.863281 C 27.878906 6.96875 27.582031 7.0625 27.566406 7.082031 C 27.535156 7.121094 29.144531 12.363281 29.214844 12.445312 C 29.289062 12.523438 30.289062 12.242188 30.320312 12.132812 C 30.34375 12.066406 28.925781 6.726562 28.878906 6.6875 C 28.871094 6.679688 28.574219 6.757812 28.230469 6.863281 Z M 28.230469 6.863281 "/>
<path style=" stroke:none;fill-rule:nonzero;fill:rgb(0%,0%,0%);fill-opacity:1;" d="M 25.582031 7.730469 C 24.78125 8.019531 22.746094 8.84375 22.570312 8.949219 C 22.464844 9.003906 23.8125 11.867188 23.964844 11.914062 C 24.066406 11.949219 24.089844 12.003906 24.050781 12.125 C 23.996094 12.308594 24.789062 14.113281 24.933594 14.113281 C 24.980469 14.113281 25.246094 14.015625 25.515625 13.902344 L 26.003906 13.695312 L 25.574219 12.644531 C 25.1875 11.722656 25.148438 11.578125 25.261719 11.5 C 25.324219 11.449219 25.84375 11.242188 26.414062 11.023438 L 27.445312 10.648438 L 27.300781 10.238281 C 27.222656 10.015625 27.125 9.8125 27.085938 9.804688 C 27.046875 9.789062 26.507812 9.976562 25.882812 10.207031 L 24.746094 10.640625 L 24.507812 10.070312 C 24.378906 9.757812 24.257812 9.453125 24.242188 9.398438 C 24.21875 9.292969 24.957031 8.964844 26.355469 8.46875 L 26.964844 8.25 L 26.828125 7.832031 C 26.75 7.609375 26.652344 7.417969 26.613281 7.410156 C 26.574219 7.394531 26.109375 7.539062 25.582031 7.730469 Z M 25.582031 7.730469 "/>
<path style=" stroke:none;fill-rule:nonzero;fill:rgb(0%,0%,0%);fill-opacity:1;" d="M 53.722656 7.785156 C 53.105469 8.035156 52.753906 8.730469 52.929688 9.375 C 53.035156 9.75 53.402344 10.160156 54.714844 11.347656 C 55.316406 11.890625 55.386719 12.132812 55.042969 12.46875 C 54.796875 12.726562 54.453125 12.726562 53.90625 12.46875 C 53.402344 12.234375 53.136719 11.875 53.195312 11.492188 C 53.226562 11.242188 53.226562 11.234375 52.640625 11.042969 C 52.320312 10.929688 52.035156 10.855469 52.007812 10.890625 C 51.90625 10.984375 51.976562 11.769531 52.113281 12.066406 C 52.3125 12.507812 52.90625 13.03125 53.546875 13.335938 C 54.035156 13.566406 54.15625 13.589844 54.851562 13.589844 C 55.5625 13.589844 55.636719 13.574219 55.910156 13.367188 C 56.476562 12.933594 56.644531 12.300781 56.363281 11.644531 C 56.195312 11.242188 55.875 10.90625 54.730469 9.917969 C 54.484375 9.703125 54.257812 9.429688 54.226562 9.316406 C 54.203125 9.195312 54.148438 9.078125 54.097656 9.050781 C 54.003906 8.988281 54.105469 8.804688 54.203125 8.859375 C 54.242188 8.882812 54.371094 8.84375 54.484375 8.773438 C 54.722656 8.613281 55.179688 8.660156 55.644531 8.898438 C 56.035156 9.101562 56.203125 9.339844 56.203125 9.710938 C 56.203125 10 56.214844 10.007812 56.789062 10.246094 C 57.148438 10.398438 57.398438 10.464844 57.445312 10.414062 C 57.582031 10.28125 57.527344 9.519531 57.351562 9.179688 C 56.902344 8.332031 55.699219 7.699219 54.523438 7.707031 C 54.195312 7.707031 53.835938 7.746094 53.722656 7.785156 Z M 53.722656 7.785156 "/>
<path style=" stroke:none;fill-rule:nonzero;fill:rgb(0%,0%,0%);fill-opacity:1;" d="M 37.992188 13.070312 C 35.972656 13.222656 34.164062 13.511719 32.242188 14 C 31.335938 14.234375 29.511719 14.808594 28.976562 15.027344 C 28.878906 15.066406 28.824219 15.003906 28.742188 14.753906 C 28.6875 14.570312 28.605469 14.410156 28.566406 14.386719 C 28.527344 14.359375 28.320312 14.386719 28.101562 14.441406 C 27.804688 14.511719 27.703125 14.585938 27.6875 14.707031 C 27.671875 14.808594 27.613281 14.867188 27.535156 14.851562 C 27.316406 14.816406 26.300781 15.417969 26.277344 15.59375 C 26.261719 15.683594 26.132812 15.835938 25.980469 15.941406 C 25.796875 16.050781 25.699219 16.179688 25.699219 16.300781 C 25.699219 16.445312 25.539062 16.566406 24.882812 16.917969 C 23.84375 17.480469 22.523438 18.304688 21.601562 18.972656 C 20.863281 19.5 20.769531 19.546875 20.71875 19.386719 C 20.703125 19.339844 20.3125 19.558594 19.800781 19.910156 L 18.910156 20.527344 L 17.695312 18.746094 C 17.023438 17.761719 16.445312 16.925781 16.414062 16.894531 C 16.355469 16.832031 14.652344 17.914062 14.652344 18.007812 C 14.652344 18.035156 14.789062 18.25 14.964844 18.492188 L 15.269531 18.914062 L 15.949219 18.441406 L 16.636719 17.96875 L 16.917969 18.402344 L 17.207031 18.835938 L 16.523438 19.300781 C 16.085938 19.597656 15.882812 19.773438 15.964844 19.789062 C 16.042969 19.804688 16.1875 19.765625 16.292969 19.691406 C 16.574219 19.507812 16.667969 19.53125 16.558594 19.757812 C 16.5 19.894531 16.398438 19.964844 16.238281 19.980469 C 16.003906 20.003906 16.035156 20.054688 18.460938 23.589844 L 20.914062 27.167969 L 21.746094 26.597656 C 22.210938 26.277344 22.585938 25.988281 22.585938 25.957031 C 22.585938 25.921875 22.089844 25.167969 21.480469 24.28125 C 20.871094 23.390625 20.3125 22.570312 20.238281 22.453125 L 20.105469 22.242188 L 20.738281 21.808594 C 21.089844 21.578125 21.378906 21.320312 21.386719 21.257812 C 21.386719 21.175781 21.402344 21.167969 21.433594 21.222656 C 21.457031 21.296875 21.519531 21.289062 21.664062 21.199219 L 21.859375 21.070312 L 21.679688 20.785156 L 21.503906 20.503906 L 21.746094 20.308594 C 22.730469 19.523438 25.765625 17.671875 25.875 17.785156 C 26.042969 17.953125 25.933594 18.226562 25.324219 19.242188 C 24.796875 20.125 24.5625 20.632812 24.066406 21.96875 L 23.457031 23.605469 L 23.457031 24.496094 C 23.457031 24.976562 23.417969 25.652344 23.363281 25.996094 L 23.273438 26.605469 L 23.53125 26.925781 C 23.667969 27.109375 23.90625 27.328125 24.050781 27.421875 C 24.226562 27.527344 24.523438 27.902344 24.898438 28.503906 C 25.453125 29.402344 25.5 29.441406 26.765625 30.492188 C 27.476562 31.078125 28.109375 31.59375 28.167969 31.625 C 28.230469 31.664062 28.742188 31.769531 29.3125 31.871094 C 30.144531 32.015625 30.425781 32.035156 30.679688 31.96875 C 31.039062 31.882812 30.984375 31.839844 31.386719 32.554688 C 31.496094 32.753906 31.65625 32.949219 31.746094 32.988281 C 31.832031 33.027344 31.992188 33.234375 32.105469 33.453125 C 32.234375 33.710938 32.335938 33.828125 32.410156 33.796875 C 32.496094 33.765625 32.515625 33.796875 32.480469 33.933594 C 32.449219 34.054688 32.5625 34.351562 32.84375 34.878906 C 33.21875 35.578125 33.316406 35.691406 33.84375 36.082031 L 34.425781 36.515625 L 34.425781 37.035156 C 34.425781 37.398438 34.484375 37.679688 34.59375 37.925781 C 34.90625 38.59375 34.90625 38.625 34.753906 38.824219 C 34.644531 38.976562 34.425781 39.554688 34.425781 39.722656 C 34.425781 39.796875 35.292969 40.210938 35.933594 40.445312 C 36.507812 40.652344 37.863281 40.933594 37.933594 40.851562 C 37.949219 40.835938 37.832031 40.660156 37.652344 40.460938 C 37.375 40.148438 37.324219 40.027344 37.277344 39.601562 C 37.199219 38.769531 37.222656 38.488281 37.390625 38.269531 C 37.589844 38.015625 37.589844 37.949219 37.40625 37.894531 C 37.285156 37.855469 37.238281 37.703125 37.164062 37.132812 C 37.046875 36.242188 37.046875 36.242188 37.191406 36.242188 C 37.261719 36.242188 37.597656 36.097656 37.949219 35.921875 L 38.589844 35.601562 L 39.246094 35.867188 L 39.894531 36.136719 L 40.535156 35.867188 L 41.175781 35.59375 L 41.699219 35.84375 C 41.976562 35.96875 42.25 36.082031 42.289062 36.082031 C 42.328125 36.082031 42.417969 36.128906 42.480469 36.195312 C 42.539062 36.257812 42.625 36.324219 42.667969 36.339844 C 42.714844 36.355469 42.714844 36.613281 42.667969 37.042969 C 42.601562 37.566406 42.546875 37.757812 42.425781 37.863281 C 42.242188 38.015625 42.296875 38.199219 42.496094 38.136719 C 42.753906 38.054688 42.816406 38.390625 42.714844 39.28125 C 42.609375 40.109375 42.585938 40.164062 42.160156 40.644531 L 41.914062 40.910156 L 42.3125 40.863281 C 43.019531 40.765625 43.898438 40.492188 44.660156 40.132812 C 45.058594 39.9375 45.394531 39.769531 45.394531 39.753906 C 45.386719 39.59375 45.125 38.90625 45.027344 38.800781 C 44.90625 38.664062 44.914062 38.609375 45.148438 38.054688 C 45.332031 37.613281 45.394531 37.332031 45.394531 36.980469 L 45.394531 36.5 L 45.996094 36.050781 C 46.589844 35.609375 46.597656 35.585938 47.199219 34.398438 C 47.613281 33.574219 47.878906 33.148438 48.046875 33.027344 C 48.175781 32.9375 48.390625 32.652344 48.519531 32.386719 C 48.773438 31.890625 48.808594 31.871094 49.207031 31.984375 C 49.382812 32.035156 49.695312 32.007812 50.25 31.898438 C 50.679688 31.816406 51.128906 31.746094 51.234375 31.746094 C 51.488281 31.753906 51.617188 31.664062 53.105469 30.445312 C 54.347656 29.425781 54.578125 29.179688 54.484375 29.027344 C 54.402344 28.890625 54.316406 28.9375 54.195312 29.179688 C 54.089844 29.386719 53.585938 29.835938 52.066406 31.054688 C 51.503906 31.511719 51.472656 31.527344 50.703125 31.640625 C 50.191406 31.71875 49.695312 31.746094 49.269531 31.710938 L 48.621094 31.664062 L 48.445312 32.074219 C 48.351562 32.296875 48.117188 32.617188 47.910156 32.8125 C 47.671875 33.035156 47.421875 33.394531 47.183594 33.863281 C 46.988281 34.253906 46.8125 34.558594 46.789062 34.535156 C 46.765625 34.511719 46.925781 34.132812 47.148438 33.699219 C 47.414062 33.164062 47.636719 32.835938 47.820312 32.691406 C 48.007812 32.554688 48.175781 32.304688 48.320312 31.953125 C 48.488281 31.566406 48.574219 31.441406 48.671875 31.464844 C 49.128906 31.585938 49.800781 31.59375 50.570312 31.472656 L 51.425781 31.335938 L 52.714844 30.292969 L 54.003906 29.242188 L 54.515625 28.34375 C 54.972656 27.527344 55.058594 27.421875 55.453125 27.199219 C 55.996094 26.886719 56.019531 26.941406 55.484375 27.269531 C 55.140625 27.488281 55.027344 27.613281 54.753906 28.160156 C 54.46875 28.730469 54.425781 28.945312 54.585938 28.945312 C 54.621094 28.945312 54.820312 28.65625 55.035156 28.304688 C 55.300781 27.863281 55.546875 27.574219 55.820312 27.382812 C 56.140625 27.148438 56.203125 27.0625 56.15625 26.925781 C 56.117188 26.789062 56.132812 26.765625 56.238281 26.804688 C 56.460938 26.894531 56.550781 26.589844 56.453125 26.027344 C 56.40625 25.746094 56.363281 25.113281 56.363281 24.609375 L 56.375 23.695312 L 55.789062 22.113281 C 55.371094 20.96875 55.171875 20.511719 55.066406 20.480469 C 54.964844 20.445312 54.933594 20.382812 54.964844 20.277344 C 54.996094 20.175781 54.828125 19.820312 54.417969 19.140625 C 53.929688 18.320312 53.835938 18.105469 53.867188 17.898438 C 53.882812 17.753906 53.9375 17.640625 53.980469 17.640625 C 54.21875 17.640625 57.398438 19.613281 58.359375 20.359375 L 58.550781 20.503906 L 58.382812 20.777344 L 58.214844 21.046875 L 58.503906 21.25 C 58.664062 21.359375 59.054688 21.632812 59.375 21.859375 L 59.960938 22.257812 L 58.925781 23.765625 C 58.359375 24.601562 57.910156 25.3125 57.941406 25.363281 C 57.964844 25.402344 57.949219 25.417969 57.910156 25.394531 C 57.863281 25.363281 57.734375 25.480469 57.613281 25.660156 L 57.40625 25.972656 L 58.230469 26.53125 C 58.679688 26.84375 59.070312 27.109375 59.101562 27.117188 C 59.191406 27.148438 64.21875 19.78125 64.15625 19.726562 C 64.117188 19.691406 63.8125 19.476562 63.464844 19.242188 C 63.035156 18.949219 62.867188 18.796875 62.929688 18.730469 C 63.042969 18.617188 63.035156 18.457031 62.914062 18.417969 C 62.859375 18.402344 62.882812 18.394531 62.976562 18.410156 C 63.089844 18.425781 63.1875 18.363281 63.28125 18.195312 L 63.417969 17.960938 L 63.667969 18.128906 C 63.851562 18.265625 63.921875 18.28125 63.972656 18.203125 C 64.011719 18.136719 64.050781 18.136719 64.082031 18.1875 C 64.105469 18.234375 64.089844 18.28125 64.035156 18.296875 C 63.980469 18.320312 64.132812 18.464844 64.363281 18.625 L 64.796875 18.914062 L 65.109375 18.480469 C 65.277344 18.25 65.414062 18.035156 65.414062 18.015625 C 65.414062 17.976562 63.769531 16.839844 63.707031 16.839844 C 63.691406 16.839844 63.105469 17.664062 62.410156 18.683594 L 61.144531 20.527344 L 60.265625 19.917969 C 59.769531 19.574219 59.359375 19.347656 59.34375 19.394531 C 59.289062 19.558594 59.183594 19.5 58.261719 18.851562 C 57.222656 18.113281 56.277344 17.527344 55.050781 16.871094 C 54.5625 16.605469 54.164062 16.332031 54.140625 16.261719 C 54.125 16.179688 53.988281 16.042969 53.84375 15.957031 C 53.699219 15.867188 53.554688 15.699219 53.53125 15.59375 C 53.492188 15.453125 53.332031 15.324219 52.921875 15.113281 C 52.617188 14.960938 52.320312 14.84375 52.265625 14.851562 C 52.210938 14.867188 52.152344 14.800781 52.136719 14.707031 C 52.121094 14.585938 52.019531 14.511719 51.722656 14.441406 C 51.257812 14.320312 51.199219 14.34375 51.082031 14.714844 C 51.03125 14.867188 50.976562 14.996094 50.960938 14.996094 C 50.953125 14.996094 50.703125 14.90625 50.417969 14.792969 C 49.832031 14.578125 48.007812 14.03125 47.757812 14 C 47.664062 13.992188 47.558594 13.960938 47.511719 13.9375 C 47.414062 13.871094 45.210938 13.445312 44.355469 13.320312 C 42.59375 13.0625 39.710938 12.949219 37.992188 13.070312 Z M 43.53125 14.386719 C 45.652344 14.664062 47.414062 15.058594 49.214844 15.644531 C 50.089844 15.925781 50.214844 15.988281 50.097656 16.078125 C 49.992188 16.15625 49.960938 16.300781 49.960938 16.789062 L 49.960938 17.40625 L 50.410156 17.824219 C 50.65625 18.058594 50.9375 18.273438 51.03125 18.320312 C 51.121094 18.363281 51.21875 18.417969 51.242188 18.449219 C 51.265625 18.472656 51.402344 18.5625 51.539062 18.632812 C 51.921875 18.828125 52.113281 19.285156 52.289062 20.421875 L 52.441406 21.417969 L 52.25 21.753906 C 52.066406 22.074219 51.761719 23.5 51.707031 24.328125 C 51.664062 24.824219 51.472656 24.898438 50.863281 24.617188 L 50.367188 24.390625 L 49.039062 24.839844 C 47.726562 25.289062 47.710938 25.296875 47.511719 25.632812 C 47.398438 25.828125 47.285156 25.980469 47.253906 25.980469 C 47.222656 25.980469 46.996094 25.921875 46.757812 25.859375 C 46.515625 25.796875 46.125 25.738281 45.894531 25.738281 C 45.515625 25.738281 45.445312 25.707031 45.234375 25.472656 C 45.042969 25.257812 44.835938 25.152344 44.019531 24.898438 C 43.476562 24.730469 42.996094 24.542969 42.9375 24.480469 C 42.859375 24.382812 42.835938 24.390625 42.746094 24.550781 C 42.699219 24.65625 42.457031 24.976562 42.21875 25.273438 C 41.867188 25.714844 41.648438 25.882812 41.089844 26.1875 C 40.703125 26.394531 40.382812 26.566406 40.382812 26.574219 C 40.375 26.582031 40.351562 26.804688 40.320312 27.078125 C 40.273438 27.535156 40.28125 27.582031 40.410156 27.582031 C 40.503906 27.582031 40.6875 27.34375 40.976562 26.820312 C 41.328125 26.195312 41.441406 26.058594 41.601562 26.058594 C 41.785156 26.058594 41.785156 26.066406 41.671875 26.378906 C 41.609375 26.558594 41.578125 26.699219 41.609375 26.699219 C 41.632812 26.699219 41.617188 26.75 41.578125 26.796875 C 41.433594 26.980469 41.226562 27.71875 41.28125 27.871094 C 41.3125 27.96875 41.304688 27.992188 41.257812 27.929688 C 41.136719 27.757812 40.273438 30.621094 40.273438 31.183594 C 40.273438 31.199219 40.328125 31.167969 40.390625 31.109375 C 40.457031 31.054688 40.511719 30.894531 40.511719 30.757812 C 40.511719 30.382812 40.9375 29.78125 41.394531 29.5 C 41.730469 29.289062 41.839844 29.15625 42.113281 28.601562 C 42.296875 28.242188 42.449219 27.945312 42.464844 27.929688 C 42.53125 27.855469 43.082031 27.671875 43.042969 27.726562 C 43.019531 27.765625 42.890625 27.847656 42.761719 27.894531 C 42.585938 27.976562 42.464844 28.144531 42.242188 28.625 C 42.019531 29.105469 41.875 29.300781 41.632812 29.460938 C 41.207031 29.738281 41.226562 29.8125 41.65625 29.554688 C 41.90625 29.410156 42.082031 29.203125 42.335938 28.753906 C 42.65625 28.191406 42.730469 28.121094 43.234375 27.855469 C 43.585938 27.671875 43.898438 27.429688 44.117188 27.175781 C 44.300781 26.957031 44.5 26.78125 44.5625 26.78125 C 44.628906 26.78125 44.660156 26.742188 44.636719 26.699219 C 44.546875 26.566406 44.300781 26.613281 44.164062 26.796875 C 43.980469 27.070312 43.609375 27.480469 43.675781 27.34375 C 43.714844 27.277344 43.796875 27.15625 43.859375 27.078125 C 43.921875 27.003906 43.957031 26.941406 43.921875 26.941406 C 43.890625 26.941406 43.964844 26.863281 44.089844 26.757812 C 44.300781 26.582031 45.902344 26.140625 46.300781 26.140625 C 46.382812 26.140625 46.628906 26.234375 46.84375 26.347656 L 47.253906 26.558594 L 47.207031 26.886719 C 47.140625 27.269531 47.070312 27.375 46.773438 27.496094 C 46.652344 27.542969 46.398438 27.824219 46.1875 28.128906 C 45.902344 28.546875 45.78125 28.808594 45.675781 29.308594 C 45.597656 29.660156 45.414062 30.308594 45.269531 30.742188 C 45.117188 31.183594 45.011719 31.558594 45.035156 31.578125 C 45.058594 31.601562 45.042969 31.65625 45.003906 31.703125 C 44.972656 31.753906 44.820312 32.136719 44.683594 32.5625 L 44.425781 33.332031 L 43.386719 33.710938 L 42.335938 34.085938 L 41.679688 33.765625 C 41.320312 33.582031 40.984375 33.4375 40.9375 33.4375 C 40.890625 33.4375 40.695312 33.308594 40.511719 33.15625 C 40.0625 32.777344 40 32.796875 40.070312 33.253906 C 40.105469 33.46875 40.136719 33.644531 40.152344 33.660156 C 40.167969 33.675781 40.382812 33.71875 40.648438 33.757812 C 40.960938 33.796875 41.152344 33.789062 41.226562 33.726562 C 41.3125 33.660156 41.328125 33.660156 41.289062 33.734375 C 41.226562 33.835938 41.769531 34.261719 41.882812 34.199219 C 41.914062 34.175781 41.960938 34.214844 41.984375 34.277344 C 42.027344 34.382812 42.128906 34.398438 42.648438 34.351562 C 42.996094 34.320312 43.402344 34.230469 43.5625 34.148438 L 43.851562 34.003906 L 44.097656 34.351562 C 44.277344 34.589844 44.476562 34.75 44.753906 34.871094 C 44.980469 34.96875 45.140625 35.070312 45.125 35.113281 C 45.101562 35.144531 44.890625 35.320312 44.660156 35.496094 C 44.355469 35.730469 44.074219 35.859375 43.660156 35.960938 L 43.082031 36.097656 L 42.136719 35.527344 C 41.34375 35.054688 41.082031 34.9375 40.558594 34.839844 C 40.007812 34.734375 39.847656 34.734375 39.269531 34.832031 C 38.703125 34.9375 38.503906 35.015625 37.671875 35.519531 L 36.726562 36.089844 L 36.15625 35.953125 C 35.628906 35.824219 34.675781 35.273438 34.667969 35.097656 C 34.667969 35.0625 34.84375 34.960938 35.058594 34.871094 C 35.332031 34.75 35.53125 34.597656 35.707031 34.351562 L 35.957031 33.996094 L 36.253906 34.148438 C 36.414062 34.230469 36.8125 34.320312 37.132812 34.351562 C 37.71875 34.40625 37.726562 34.40625 38.214844 34.09375 C 38.527344 33.894531 38.894531 33.742188 39.207031 33.675781 C 39.695312 33.582031 39.710938 33.566406 39.800781 33.261719 C 39.847656 33.082031 39.863281 32.921875 39.847656 32.90625 C 39.769531 32.828125 39.398438 33.035156 39.351562 33.1875 C 39.320312 33.308594 39.167969 33.394531 38.847656 33.484375 C 38.597656 33.558594 38.191406 33.726562 37.941406 33.863281 L 37.484375 34.101562 L 36.429688 33.710938 L 35.371094 33.316406 L 34.898438 31.871094 C 34.636719 31.078125 34.324219 30.027344 34.195312 29.539062 C 33.9375 28.519531 33.515625 27.800781 32.996094 27.472656 C 32.761719 27.320312 32.667969 27.199219 32.601562 26.941406 C 32.53125 26.636719 32.539062 26.605469 32.714844 26.5 C 32.816406 26.4375 32.996094 26.324219 33.105469 26.261719 C 33.371094 26.101562 33.433594 26.101562 34.578125 26.355469 L 35.574219 26.574219 L 35.882812 26.988281 C 36.132812 27.320312 36.324219 27.472656 36.789062 27.6875 C 37.375 27.96875 37.382812 27.976562 37.703125 28.609375 C 37.964844 29.148438 38.085938 29.28125 38.429688 29.507812 C 38.894531 29.804688 39.3125 30.429688 39.3125 30.839844 C 39.3125 31 39.359375 31.109375 39.441406 31.144531 C 39.527344 31.175781 39.550781 31.152344 39.519531 31.046875 C 39.496094 30.976562 39.441406 30.660156 39.382812 30.355469 C 39.335938 30.050781 39.007812 28.960938 38.664062 27.929688 C 38.125 26.324219 38.0625 26.058594 38.183594 26.058594 C 38.277344 26.058594 38.101562 25.820312 37.636719 25.339844 C 37.238281 24.921875 36.886719 24.617188 36.796875 24.617188 C 36.710938 24.617188 36.246094 24.746094 35.757812 24.90625 C 35.085938 25.121094 34.804688 25.257812 34.585938 25.457031 C 34.347656 25.691406 34.242188 25.730469 33.867188 25.746094 C 33.625 25.753906 33.234375 25.820312 33.011719 25.875 C 32.777344 25.9375 32.554688 25.972656 32.515625 25.9375 C 32.464844 25.914062 32.355469 25.753906 32.265625 25.59375 C 32.097656 25.296875 32.050781 25.273438 30.761719 24.847656 L 29.421875 24.398438 L 28.917969 24.632812 C 28.429688 24.855469 28.398438 24.855469 28.253906 24.730469 C 28.167969 24.648438 28.101562 24.488281 28.101562 24.320312 C 28.101562 23.726562 27.757812 22.089844 27.558594 21.746094 L 27.367188 21.402344 L 27.511719 20.460938 C 27.695312 19.210938 27.886719 18.835938 28.453125 18.546875 C 28.695312 18.417969 29.101562 18.113281 29.375 17.863281 L 29.863281 17.40625 L 29.863281 16.765625 C 29.863281 16.390625 29.832031 16.117188 29.785156 16.117188 C 29.34375 16.117188 30.664062 15.636719 32.425781 15.15625 C 33.761719 14.792969 36.042969 14.417969 37.949219 14.242188 C 38.742188 14.167969 42.667969 14.273438 43.53125 14.386719 Z M 27.214844 15.84375 C 27.382812 16.246094 27.421875 16.285156 27.589844 16.246094 C 27.804688 16.1875 27.839844 16.285156 27.664062 16.4375 C 27.589844 16.492188 27.558594 16.597656 27.582031 16.671875 C 27.613281 16.765625 27.542969 16.832031 27.332031 16.910156 C 27.183594 16.964844 27.039062 17 27.023438 16.984375 C 26.964844 16.917969 26.421875 15.796875 26.421875 15.738281 C 26.421875 15.660156 26.820312 15.402344 26.949219 15.394531 C 26.996094 15.394531 27.117188 15.59375 27.214844 15.84375 Z M 53.171875 15.53125 C 53.296875 15.613281 53.402344 15.699219 53.402344 15.730469 C 53.402344 15.789062 52.867188 16.910156 52.800781 16.984375 C 52.785156 17 52.265625 16.839844 52.21875 16.796875 C 52.160156 16.75 52.792969 15.394531 52.867188 15.394531 C 52.90625 15.394531 53.042969 15.460938 53.171875 15.53125 Z M 27.382812 19.445312 C 27.382812 19.515625 27.300781 19.886719 27.214844 20.269531 C 27.078125 20.832031 26.988281 21.015625 26.78125 21.222656 C 26.628906 21.367188 26.46875 21.625 26.421875 21.785156 C 26.277344 22.234375 26.214844 22.257812 26.117188 21.882812 C 26.035156 21.554688 26.042969 21.519531 26.605469 20.4375 C 27.125 19.4375 27.382812 19.109375 27.382812 19.445312 Z M 53.179688 20.414062 C 53.667969 21.328125 53.722656 21.488281 53.683594 21.761719 C 53.609375 22.25 53.554688 22.265625 53.394531 21.851562 C 53.316406 21.632812 53.136719 21.34375 53.003906 21.207031 C 52.808594 21.007812 52.707031 20.777344 52.5625 20.199219 C 52.378906 19.46875 52.371094 19.285156 52.546875 19.347656 C 52.59375 19.363281 52.875 19.835938 53.179688 20.414062 Z M 27.140625 21.664062 C 27.199219 21.90625 27.332031 22.1875 27.453125 22.316406 C 27.636719 22.515625 27.671875 22.644531 27.75 23.398438 C 27.832031 24.167969 27.820312 24.289062 27.695312 24.542969 C 27.558594 24.824219 27.078125 25.257812 26.902344 25.257812 C 26.851562 25.257812 26.683594 25.160156 26.535156 25.035156 L 26.261719 24.816406 L 26.261719 23.765625 C 26.261719 22.722656 26.269531 22.699219 26.550781 22.082031 C 26.804688 21.511719 26.957031 21.25 27.023438 21.25 C 27.039062 21.25 27.09375 21.441406 27.140625 21.664062 Z M 53.273438 22.113281 C 53.554688 22.765625 53.5625 22.820312 53.5625 23.78125 C 53.5625 24.777344 53.5625 24.785156 53.347656 24.976562 C 53.21875 25.089844 53.058594 25.195312 52.988281 25.21875 C 52.792969 25.28125 52.304688 24.898438 52.121094 24.535156 C 51.984375 24.261719 51.976562 24.167969 52.058594 23.40625 C 52.128906 22.667969 52.167969 22.539062 52.371094 22.308594 C 52.496094 22.164062 52.601562 22.003906 52.601562 21.945312 C 52.601562 21.890625 52.640625 21.714844 52.691406 21.539062 C 52.761719 21.273438 52.792969 21.242188 52.882812 21.335938 C 52.945312 21.402344 53.121094 21.753906 53.273438 22.113281 Z M 25.949219 22.386719 C 26.078125 22.859375 25.988281 24.898438 25.8125 25.449219 C 25.742188 25.683594 25.582031 25.988281 25.460938 26.140625 L 25.234375 26.414062 L 24.773438 25.90625 C 24.507812 25.625 24.277344 25.355469 24.25 25.304688 C 24.226562 25.257812 24.339844 24.695312 24.515625 24.054688 L 24.828125 22.890625 L 25.285156 22.476562 C 25.53125 22.242188 25.765625 22.050781 25.796875 22.050781 C 25.828125 22.050781 25.894531 22.203125 25.949219 22.386719 Z M 54.523438 22.476562 C 54.933594 22.859375 54.980469 22.949219 55.125 23.519531 C 55.203125 23.855469 55.308594 24.136719 55.347656 24.136719 C 55.378906 24.136719 55.394531 24.167969 55.363281 24.207031 C 55.339844 24.253906 55.378906 24.503906 55.453125 24.769531 L 55.589844 25.242188 L 55.085938 25.820312 L 54.578125 26.386719 L 54.363281 26.179688 C 54.066406 25.890625 53.804688 25.015625 53.804688 24.3125 C 53.804688 23.984375 53.769531 23.734375 53.722656 23.734375 C 53.683594 23.734375 53.644531 23.679688 53.644531 23.613281 C 53.644531 23.550781 53.683594 23.492188 53.730469 23.492188 C 53.796875 23.492188 53.8125 23.382812 53.777344 23.140625 C 53.746094 22.941406 53.761719 22.660156 53.8125 22.515625 C 53.859375 22.371094 53.90625 22.203125 53.929688 22.148438 C 53.980469 21.984375 54.058594 22.035156 54.523438 22.476562 Z M 31.867188 25.699219 C 31.945312 25.859375 31.984375 26.179688 31.984375 26.683594 C 31.984375 27.320312 31.960938 27.445312 31.847656 27.511719 C 31.769531 27.558594 31.707031 27.65625 31.707031 27.726562 C 31.707031 27.855469 31.625 27.863281 30.90625 27.839844 C 30.472656 27.824219 30.007812 27.839844 29.878906 27.886719 C 29.679688 27.960938 29.535156 27.917969 28.832031 27.597656 C 28.160156 27.292969 28.023438 27.207031 28.023438 27.054688 C 28.023438 26.957031 27.964844 26.699219 27.894531 26.476562 L 27.765625 26.074219 L 27.992188 25.777344 C 28.132812 25.585938 28.4375 25.371094 28.886719 25.144531 L 29.566406 24.800781 L 30.65625 25.136719 C 31.632812 25.433594 31.761719 25.492188 31.867188 25.699219 Z M 51.839844 25.8125 C 52.042969 26.117188 52.050781 26.132812 51.929688 26.421875 C 51.859375 26.589844 51.800781 26.820312 51.800781 26.949219 C 51.800781 27.214844 51.761719 27.246094 50.847656 27.65625 C 50.273438 27.910156 50.128906 27.953125 49.886719 27.894531 C 49.726562 27.855469 49.320312 27.824219 48.976562 27.824219 C 48.429688 27.824219 48.3125 27.800781 48.078125 27.625 C 47.832031 27.429688 47.8125 27.382812 47.78125 26.835938 C 47.75 26.394531 47.78125 26.15625 47.894531 25.835938 C 47.980469 25.609375 48.085938 25.417969 48.117188 25.417969 C 48.167969 25.417969 48.160156 25.507812 48.117188 25.625 C 48 25.9375 48.03125 26.132812 48.160156 25.84375 C 48.230469 25.667969 48.34375 25.570312 48.496094 25.53125 C 48.613281 25.507812 49.046875 25.402344 49.441406 25.296875 L 50.160156 25.113281 L 50.710938 25.347656 C 51.015625 25.472656 51.28125 25.570312 51.296875 25.554688 C 51.3125 25.53125 51.074219 25.386719 50.753906 25.21875 C 50.214844 24.9375 50.167969 24.929688 49.839844 25.007812 C 49.320312 25.136719 49.296875 25.105469 49.800781 24.9375 L 50.238281 24.800781 L 50.929688 25.152344 C 51.433594 25.410156 51.679688 25.585938 51.839844 25.8125 Z M 25.339844 28.359375 L 25.875 29.308594 L 27.132812 30.308594 L 28.382812 31.3125 L 29.183594 31.449219 C 29.769531 31.550781 30.144531 31.578125 30.585938 31.535156 C 30.914062 31.503906 31.21875 31.480469 31.25 31.472656 C 31.289062 31.472656 31.410156 31.6875 31.511719 31.945312 C 31.632812 32.25 31.808594 32.515625 31.992188 32.660156 C 32.1875 32.820312 32.425781 33.203125 32.753906 33.851562 C 33.019531 34.382812 33.226562 34.832031 33.210938 34.839844 C 33.195312 34.855469 32.96875 34.472656 32.714844 33.988281 C 32.417969 33.421875 32.121094 32.988281 31.90625 32.785156 C 31.714844 32.609375 31.488281 32.289062 31.394531 32.066406 L 31.21875 31.664062 L 30.558594 31.710938 C 30.128906 31.746094 29.632812 31.71875 29.121094 31.640625 L 28.335938 31.519531 L 27.519531 30.863281 C 25.796875 29.460938 25.75 29.402344 25.21875 28.425781 C 24.859375 27.734375 24.675781 27.472656 24.460938 27.34375 C 24.082031 27.109375 24.097656 27.0625 24.492188 27.253906 C 24.746094 27.390625 24.890625 27.574219 25.339844 28.359375 Z M 35.421875 33.660156 C 35.445312 33.699219 35.371094 33.863281 35.261719 34.03125 L 35.050781 34.328125 L 34.523438 34.277344 C 33.667969 34.199219 33.625 34.183594 33.625 33.925781 C 33.625 33.699219 33.636719 33.691406 34.371094 33.582031 C 35.058594 33.476562 35.316406 33.492188 35.421875 33.660156 Z M 45.539062 33.605469 C 46.179688 33.699219 46.195312 33.710938 46.195312 33.925781 C 46.195312 34.175781 46.179688 34.175781 45.21875 34.277344 L 44.773438 34.328125 L 44.5625 34.03125 C 44.371094 33.75 44.371094 33.71875 44.492188 33.582031 C 44.5625 33.5 44.675781 33.453125 44.746094 33.46875 C 44.820312 33.492188 45.171875 33.546875 45.539062 33.605469 Z M 45.539062 33.605469 "/>
<path style=" stroke:none;fill-rule:nonzero;fill:rgb(0%,0%,0%);fill-opacity:1;" d="M 39.03125 17.222656 C 38.269531 17.457031 37.832031 17.710938 37.550781 18.066406 C 37.390625 18.265625 37.390625 18.3125 37.46875 18.921875 C 37.542969 19.46875 37.535156 19.667969 37.429688 20.175781 C 37.324219 20.632812 37.261719 20.765625 37.15625 20.765625 C 36.988281 20.765625 36.742188 21.175781 36.878906 21.222656 C 36.933594 21.242188 36.957031 21.320312 36.933594 21.410156 C 36.894531 21.570312 37.054688 22.148438 37.15625 22.21875 C 37.199219 22.242188 37.191406 22.386719 37.148438 22.53125 C 37.101562 22.683594 37.070312 23.164062 37.070312 23.597656 C 37.070312 24.351562 37.078125 24.398438 37.332031 24.769531 C 37.878906 25.578125 39.289062 26.546875 39.902344 26.539062 C 40.28125 26.53125 41.167969 26.058594 41.707031 25.585938 C 42.457031 24.921875 42.753906 24.441406 42.753906 23.917969 C 42.753906 23.40625 42.675781 23.003906 42.585938 23.0625 C 42.546875 23.085938 42.515625 23.0625 42.515625 23.019531 C 42.515625 22.972656 42.554688 22.933594 42.601562 22.933594 C 42.667969 22.933594 42.683594 22.820312 42.648438 22.613281 C 42.625 22.394531 42.648438 22.203125 42.738281 22.027344 C 42.808594 21.882812 42.875 21.578125 42.875 21.335938 C 42.875 20.992188 42.84375 20.886719 42.714844 20.816406 C 42.625 20.765625 42.53125 20.695312 42.496094 20.65625 C 42.433594 20.566406 42.234375 19.558594 42.257812 19.460938 C 42.265625 19.421875 42.304688 19.179688 42.347656 18.914062 C 42.394531 18.539062 42.386719 18.441406 42.296875 18.441406 C 42.242188 18.441406 42.195312 18.402344 42.195312 18.363281 C 42.195312 18.3125 42.257812 18.28125 42.328125 18.28125 C 42.433594 18.28125 42.425781 18.242188 42.265625 18.074219 C 41.90625 17.679688 41.433594 17.421875 40.695312 17.207031 C 40.296875 17.09375 39.910156 17 39.855469 17.007812 C 39.800781 17.007812 39.429688 17.101562 39.03125 17.222656 Z M 39.207031 18.957031 C 39.71875 19.066406 40.496094 19.027344 41.074219 18.851562 C 41.441406 18.730469 41.433594 18.730469 41.546875 18.980469 C 41.625 19.15625 41.625 19.171875 41.539062 19.109375 C 41.359375 18.957031 41.410156 19.941406 41.59375 20.109375 C 41.722656 20.238281 41.730469 20.238281 41.640625 20.070312 C 41.59375 19.972656 41.554688 19.773438 41.5625 19.628906 L 41.570312 19.363281 L 41.625 19.605469 C 41.65625 19.734375 41.730469 19.925781 41.785156 20.03125 C 41.953125 20.34375 41.839844 20.472656 41.472656 20.40625 C 41.21875 20.367188 41.039062 20.398438 40.632812 20.566406 C 40.070312 20.808594 40.089844 20.785156 39.984375 21.671875 C 39.9375 22.121094 39.921875 22.148438 39.617188 22.265625 C 39.199219 22.433594 39.335938 22.570312 39.910156 22.5625 C 40.382812 22.554688 40.535156 22.484375 40.351562 22.371094 C 40.257812 22.316406 40.257812 22.242188 40.375 21.875 C 40.496094 21.488281 40.535156 21.441406 40.832031 21.34375 C 41.007812 21.296875 41.234375 21.25 41.328125 21.25 C 41.472656 21.25 41.488281 21.234375 41.394531 21.167969 C 41.25 21.082031 41.28125 21.046875 41.578125 20.976562 C 41.800781 20.917969 41.808594 20.929688 41.753906 21.160156 C 41.730469 21.296875 41.738281 21.417969 41.785156 21.449219 C 41.832031 21.472656 41.875 21.65625 41.875 21.84375 C 41.875 22.121094 41.832031 22.21875 41.6875 22.316406 C 41.585938 22.386719 41.449219 22.546875 41.394531 22.683594 C 41.28125 22.957031 41.007812 23.019531 40.832031 22.8125 C 40.695312 22.644531 39.128906 22.644531 38.992188 22.8125 C 38.808594 23.035156 38.519531 22.957031 38.375 22.652344 C 38.300781 22.492188 38.160156 22.347656 38.0625 22.324219 C 37.917969 22.28125 37.886719 22.21875 37.886719 21.945312 C 37.878906 21.761719 37.933594 21.519531 38 21.417969 C 38.09375 21.28125 38.101562 21.207031 38.039062 21.144531 C 37.894531 21 37.925781 20.832031 38.09375 20.917969 C 38.167969 20.960938 38.34375 21.007812 38.488281 21.03125 C 38.792969 21.082031 38.925781 21.152344 38.871094 21.25 C 38.808594 21.351562 39.144531 21.433594 39.253906 21.34375 C 39.3125 21.296875 39.414062 21.152344 39.488281 21.023438 L 39.632812 20.785156 L 39.109375 20.574219 C 38.703125 20.414062 38.511719 20.375 38.253906 20.414062 L 37.925781 20.472656 L 37.980469 20.199219 C 38.015625 20.046875 38.0625 19.742188 38.09375 19.523438 C 38.175781 19.003906 38.34375 18.738281 38.550781 18.804688 C 38.640625 18.828125 38.933594 18.898438 39.207031 18.957031 Z M 39.207031 18.957031 "/>
<path style=" stroke:none;fill-rule:nonzero;fill:rgb(0%,0%,0%);fill-opacity:1;" d="M 13.5 18.761719 C 13.066406 19.066406 12.699219 19.332031 12.675781 19.355469 C 12.640625 19.386719 13.203125 20.285156 13.257812 20.285156 C 13.28125 20.285156 14.851562 19.210938 14.964844 19.117188 C 14.996094 19.082031 14.386719 18.203125 14.332031 18.210938 C 14.308594 18.210938 13.9375 18.457031 13.5 18.761719 Z M 13.5 18.761719 "/>
<path style=" stroke:none;fill-rule:nonzero;fill:rgb(0%,0%,0%);fill-opacity:1;" d="M 65.378906 18.652344 C 65.210938 18.898438 65.09375 19.109375 65.109375 19.125 C 65.355469 19.355469 66.8125 20.277344 66.84375 20.230469 C 66.871094 20.191406 67.011719 19.980469 67.164062 19.773438 C 67.308594 19.566406 67.398438 19.363281 67.367188 19.332031 C 67.238281 19.21875 65.742188 18.203125 65.707031 18.203125 C 65.691406 18.203125 65.539062 18.402344 65.378906 18.652344 Z M 65.378906 18.652344 "/>
<path style=" stroke:none;fill-rule:nonzero;fill:rgb(0%,0%,0%);fill-opacity:1;" d="M 11.609375 20.054688 C 11.234375 20.320312 10.855469 20.582031 10.769531 20.640625 C 10.617188 20.742188 10.625 20.757812 10.921875 21.199219 C 11.097656 21.449219 11.25 21.648438 11.265625 21.648438 C 11.335938 21.648438 12.929688 20.511719 12.929688 20.460938 C 12.929688 20.382812 12.378906 19.566406 12.328125 19.574219 C 12.304688 19.582031 11.984375 19.796875 11.609375 20.054688 Z M 11.609375 20.054688 "/>
<path style=" stroke:none;fill-rule:nonzero;fill:rgb(0%,0%,0%);fill-opacity:1;" d="M 67.382812 20.015625 C 67.214844 20.261719 67.109375 20.488281 67.140625 20.519531 C 67.269531 20.632812 68.757812 21.648438 68.800781 21.648438 C 68.847656 21.648438 69.429688 20.757812 69.398438 20.734375 C 69.296875 20.648438 67.726562 19.566406 67.710938 19.566406 C 67.703125 19.574219 67.558594 19.773438 67.382812 20.015625 Z M 67.382812 20.015625 "/>
<path style=" stroke:none;fill-rule:nonzero;fill:rgb(0%,0%,0%);fill-opacity:1;" d="M 14.773438 20.496094 C 14.378906 20.785156 14.003906 21.039062 13.9375 21.082031 C 13.859375 21.128906 14.46875 22.066406 16.375 24.839844 L 18.910156 28.539062 L 19.398438 28.207031 C 19.671875 28.023438 20.0625 27.757812 20.273438 27.605469 L 20.640625 27.335938 L 18.863281 24.753906 C 17.886719 23.332031 16.75 21.671875 16.332031 21.0625 C 15.917969 20.460938 15.5625 19.964844 15.539062 19.972656 C 15.515625 19.972656 15.171875 20.214844 14.773438 20.496094 Z M 14.773438 20.496094 "/>
<path style=" stroke:none;fill-rule:nonzero;fill:rgb(0%,0%,0%);fill-opacity:1;" d="M 62.921875 22.234375 C 62.074219 23.476562 60.929688 25.136719 60.390625 25.921875 C 59.625 27.03125 59.449219 27.34375 59.582031 27.300781 C 59.726562 27.261719 59.742188 27.269531 59.648438 27.335938 C 59.566406 27.390625 59.558594 27.445312 59.609375 27.480469 C 59.65625 27.519531 60.023438 27.765625 60.425781 28.039062 L 61.152344 28.539062 L 63.683594 24.839844 C 65.085938 22.8125 66.214844 21.144531 66.195312 21.128906 C 66.140625 21.082031 64.644531 20.070312 64.5625 20.023438 C 64.515625 19.988281 63.828125 20.910156 62.921875 22.234375 Z M 62.921875 22.234375 "/>
<path style=" stroke:none;fill-rule:nonzero;fill:rgb(0%,0%,0%);fill-opacity:1;" d="M 9.503906 21.511719 C 9.03125 21.824219 8.648438 22.105469 8.648438 22.128906 C 8.648438 22.15625 9.910156 24.015625 11.449219 26.261719 C 13.410156 29.121094 14.308594 30.355469 14.417969 30.375 C 14.53125 30.398438 14.570312 30.445312 14.53125 30.527344 C 14.507812 30.597656 14.578125 30.789062 14.691406 30.964844 C 14.933594 31.328125 14.851562 31.351562 15.910156 30.613281 L 16.636719 30.101562 L 14.355469 26.78125 C 13.097656 24.953125 11.960938 23.285156 11.816406 23.078125 L 11.5625 22.699219 L 10.871094 23.179688 L 10.191406 23.652344 L 9.902344 23.222656 L 9.625 22.796875 L 10.96875 21.867188 L 10.832031 21.65625 C 10.761719 21.546875 10.625 21.328125 10.527344 21.191406 L 10.351562 20.929688 Z M 9.503906 21.511719 "/>
<path style=" stroke:none;fill-rule:nonzero;fill:rgb(0%,0%,0%);fill-opacity:1;" d="M 69.414062 21.351562 C 69.261719 21.585938 69.128906 21.792969 69.109375 21.816406 C 69.09375 21.851562 69.390625 22.074219 69.769531 22.332031 L 70.441406 22.796875 L 70.160156 23.222656 L 69.878906 23.644531 L 69.183594 23.179688 L 68.488281 22.707031 L 67.949219 23.5 C 67.636719 23.949219 67.429688 24.335938 67.460938 24.390625 C 67.492188 24.441406 67.484375 24.457031 67.429688 24.421875 C 67.382812 24.390625 66.582031 25.492188 65.4375 27.15625 C 64.386719 28.679688 63.507812 29.972656 63.476562 30.019531 C 63.441406 30.078125 63.769531 30.347656 64.277344 30.695312 C 64.949219 31.152344 65.148438 31.253906 65.21875 31.175781 C 65.347656 31.03125 71.34375 22.28125 71.386719 22.179688 C 71.410156 22.105469 70.855469 21.691406 69.902344 21.070312 L 69.695312 20.9375 Z M 69.414062 21.351562 "/>
<path style=" stroke:none;fill-rule:nonzero;fill:rgb(0%,0%,0%);fill-opacity:1;" d="M 12.800781 21.859375 C 12.386719 22.148438 12 22.410156 11.9375 22.441406 C 11.847656 22.5 12.410156 23.367188 14.292969 26.109375 C 15.644531 28.089844 16.796875 29.757812 16.84375 29.804688 C 16.917969 29.882812 17.117188 29.78125 17.757812 29.339844 C 18.207031 29.027344 18.574219 28.738281 18.574219 28.699219 C 18.574219 28.648438 13.722656 21.511719 13.578125 21.351562 C 13.570312 21.335938 13.21875 21.570312 12.800781 21.859375 Z M 12.800781 21.859375 "/>
<path style=" stroke:none;fill-rule:nonzero;fill:rgb(0%,0%,0%);fill-opacity:1;" d="M 63.945312 25.035156 L 61.417969 28.730469 L 62.074219 29.1875 C 62.433594 29.433594 62.828125 29.699219 62.945312 29.78125 L 63.15625 29.917969 L 63.683594 29.148438 C 63.972656 28.714844 64.210938 28.335938 64.210938 28.304688 C 64.210938 28.265625 64.242188 28.222656 64.277344 28.207031 C 64.347656 28.183594 68.214844 22.570312 68.214844 22.5 C 68.214844 22.46875 68.167969 22.453125 68.101562 22.453125 C 68.039062 22.453125 67.972656 22.417969 67.957031 22.386719 C 67.933594 22.332031 66.820312 21.527344 66.566406 21.386719 C 66.515625 21.359375 65.378906 22.949219 63.945312 25.035156 Z M 63.945312 25.035156 "/>
<path style=" stroke:none;fill-rule:nonzero;fill:rgb(0%,0%,0%);fill-opacity:1;" d="M 9.015625 23.613281 C 8.933594 23.679688 8.886719 23.773438 8.910156 23.832031 C 8.933594 23.886719 9.367188 24.527344 9.871094 25.257812 C 10.640625 26.363281 10.769531 26.597656 10.679688 26.691406 C 10.527344 26.863281 11.152344 27.777344 11.367188 27.703125 C 11.488281 27.664062 11.6875 27.902344 12.449219 29.019531 C 12.960938 29.773438 13.410156 30.40625 13.449219 30.429688 C 13.539062 30.484375 13.851562 30.300781 13.851562 30.1875 C 13.84375 30.070312 9.34375 23.550781 9.246094 23.527344 C 9.199219 23.507812 9.101562 23.550781 9.015625 23.613281 Z M 9.015625 23.613281 "/>
<path style=" stroke:none;fill-rule:nonzero;fill:rgb(0%,0%,0%);fill-opacity:1;" d="M 70.679688 23.628906 C 70.457031 23.902344 66.214844 30.132812 66.214844 30.203125 C 66.214844 30.238281 66.292969 30.316406 66.382812 30.375 C 66.597656 30.507812 66.550781 30.574219 67.652344 28.960938 C 68.375 27.902344 68.574219 27.664062 68.695312 27.703125 C 68.917969 27.777344 69.535156 26.851562 69.375 26.691406 C 69.289062 26.597656 69.414062 26.371094 70.191406 25.257812 C 70.695312 24.527344 71.128906 23.886719 71.152344 23.832031 C 71.175781 23.773438 71.128906 23.679688 71.050781 23.613281 C 70.847656 23.460938 70.824219 23.46875 70.679688 23.628906 Z M 70.679688 23.628906 "/>
<path style=" stroke:none;fill-rule:nonzero;fill:rgb(0%,0%,0%);fill-opacity:1;" d="M 39.921875 36.570312 C 39.894531 36.714844 39.871094 36.957031 39.871094 37.117188 C 39.871094 37.292969 39.792969 37.527344 39.671875 37.703125 C 39.429688 38.054688 39.078125 38.136719 38.246094 38.023438 C 37.804688 37.964844 37.71875 37.976562 37.804688 38.054688 C 37.972656 38.222656 39.207031 38.503906 39.519531 38.441406 C 39.769531 38.390625 39.792969 38.40625 39.792969 38.578125 C 39.792969 38.679688 39.824219 38.816406 39.863281 38.882812 C 39.921875 38.96875 39.953125 38.960938 40.023438 38.824219 C 40.070312 38.738281 40.113281 38.609375 40.113281 38.535156 C 40.113281 38.359375 40.207031 38.328125 40.527344 38.398438 C 40.832031 38.472656 42.035156 38.207031 42.035156 38.070312 C 42.035156 37.992188 41.992188 37.992188 41.59375 38.085938 C 41.152344 38.191406 40.617188 38.046875 40.289062 37.734375 C 40.023438 37.484375 40.015625 37.476562 40.070312 36.949219 C 40.121094 36.402344 40.015625 36.121094 39.921875 36.570312 Z M 39.921875 36.570312 "/>
<path style=" stroke:none;fill-rule:nonzero;fill:rgb(0%,0%,0%);fill-opacity:1;" d="M 22.777344 43.539062 C 20.207031 43.765625 18.488281 44.605469 17.871094 45.921875 C 17.679688 46.339844 17.652344 46.480469 17.652344 47.226562 C 17.652344 47.972656 17.679688 48.117188 17.863281 48.511719 C 18.4375 49.707031 19.855469 50.484375 22.136719 50.84375 C 22.953125 50.980469 25.910156 50.980469 26.863281 50.851562 C 28.015625 50.691406 28.816406 50.515625 29.527344 50.257812 L 30.183594 50.019531 L 30.183594 47.066406 L 24.179688 47.066406 L 24.179688 48.191406 L 27.070312 48.191406 L 27.046875 48.808594 L 27.023438 49.417969 L 26.710938 49.527344 C 26.132812 49.722656 24.605469 49.824219 23.730469 49.730469 C 22.296875 49.5625 21.570312 49.222656 21.160156 48.535156 C 20.960938 48.191406 20.9375 48.0625 20.898438 47.21875 C 20.871094 46.707031 20.878906 46.257812 20.921875 46.21875 C 20.953125 46.175781 21.089844 45.992188 21.226562 45.800781 C 21.753906 45.046875 22.640625 44.734375 24.25 44.734375 C 25.574219 44.734375 26.382812 44.941406 26.773438 45.375 C 26.863281 45.472656 26.964844 45.542969 27.023438 45.542969 C 27.070312 45.542969 27.109375 45.625 27.109375 45.71875 C 27.101562 45.90625 27.101562 45.90625 28.65625 45.929688 L 30.199219 45.945312 L 30.152344 45.730469 C 29.921875 44.765625 28.527344 43.949219 26.621094 43.660156 C 25.675781 43.523438 23.691406 43.453125 22.777344 43.539062 Z M 22.777344 43.539062 "/>
<path style=" stroke:none;fill-rule:nonzero;fill:rgb(0%,0%,0%);fill-opacity:1;" d="M 33.980469 45.921875 L 36.5 48.230469 L 36.507812 49.570312 L 36.507812 50.917969 L 39.710938 50.917969 L 39.710938 49.570312 L 39.71875 48.230469 L 40.832031 47.226562 C 41.457031 46.667969 41.929688 46.175781 41.914062 46.121094 C 41.890625 46.066406 41.921875 46.035156 41.984375 46.042969 C 42.042969 46.058594 42.691406 45.511719 43.425781 44.839844 L 44.765625 43.621094 L 41.273438 43.621094 L 39.695312 45.238281 L 38.109375 46.867188 L 36.535156 45.238281 L 34.949219 43.613281 L 33.203125 43.621094 L 31.457031 43.621094 Z M 33.980469 45.921875 "/>
<path style=" stroke:none;fill-rule:nonzero;fill:rgb(0%,0%,0%);fill-opacity:1;" d="M 46.195312 47.269531 L 46.195312 50.917969 L 47.78125 50.898438 L 49.359375 50.875 L 49.382812 49.882812 L 49.40625 48.894531 L 49.160156 48.929688 C 48.855469 48.976562 48.839844 48.863281 49.144531 48.792969 L 49.367188 48.742188 L 49.222656 47.203125 C 49.144531 46.355469 49.085938 45.640625 49.101562 45.601562 C 49.109375 45.566406 50.039062 46.738281 51.167969 48.207031 L 53.210938 50.875 L 54.292969 50.898438 L 55.363281 50.925781 L 57.398438 48.269531 C 58.519531 46.8125 59.464844 45.601562 59.496094 45.578125 C 59.527344 45.558594 59.542969 45.65625 59.519531 45.800781 C 59.390625 46.738281 59.246094 48.902344 59.246094 49.824219 L 59.246094 50.917969 L 60.832031 50.898438 L 62.410156 50.875 L 62.433594 48.039062 C 62.449219 46.007812 62.425781 45.167969 62.363281 45.09375 C 62.296875 45.015625 62.296875 44.984375 62.363281 44.984375 C 62.417969 44.984375 62.449219 44.75 62.449219 44.300781 L 62.449219 43.621094 L 58.222656 43.621094 L 56.285156 46.226562 C 54.90625 48.085938 54.324219 48.816406 54.25 48.757812 C 54.203125 48.71875 53.316406 47.539062 52.28125 46.152344 L 50.398438 43.628906 L 48.300781 43.621094 L 46.195312 43.621094 Z M 46.195312 47.269531 "/>
</g>
</svg>
