<?xml version="1.0" standalone="no"?>
<!DOCTYPE svg PUBLIC "-//W3C//DTD SVG 20010904//EN"
 "http://www.w3.org/TR/2001/REC-SVG-20010904/DTD/svg10.dtd">
<svg version="1.0" xmlns="http://www.w3.org/2000/svg"
 width="1249.000000pt" height="873.000000pt" viewBox="0 0 1249.000000 873.000000"
 preserveAspectRatio="xMidYMid meet">
<metadata>
Created by potrace 1.15, written by Peter Selinger 2001-2017
</metadata>
<g transform="translate(0.000000,873.000000) scale(0.100000,-0.100000)"
fill="#000000" stroke="none">
<path d="M0 4365 l0 -4365 6245 0 6245 0 0 4365 0 4365 -6245 0 -6245 0 0
-4365z m6425 3551 c14 -5 14 -25 -1 -624 -7 -279 4 -255 -118 -250 l-68 3
-108 159 c-59 87 -112 161 -117 165 -4 3 -24 29 -43 56 -19 28 -45 61 -57 75
-13 14 -23 29 -23 33 0 5 -13 22 -30 39 l-30 30 0 -39 c0 -21 7 -132 15 -248
8 -115 15 -229 15 -253 l0 -42 -69 1 c-38 1 -73 -1 -79 -5 -23 -14 -34 27 -37
133 -2 61 -6 114 -8 118 -6 10 -33 221 -42 328 -3 39 -10 99 -15 135 -5 36
-10 86 -10 111 l0 47 78 5 c137 9 125 13 184 -61 29 -36 60 -76 68 -89 8 -12
44 -59 80 -105 36 -46 80 -107 99 -135 18 -29 36 -53 40 -53 3 0 19 -23 36
-50 16 -28 33 -46 38 -41 4 4 8 134 7 287 l-1 279 91 -2 c50 -1 97 -4 105 -7z
m570 -32 c83 -8 177 -17 210 -20 33 -3 67 -8 75 -11 8 -4 21 -5 28 -4 13 2 15
-65 3 -108 -8 -29 -21 -32 -108 -20 -37 5 -120 14 -183 19 -63 6 -129 13 -146
16 -27 5 -32 2 -41 -23 -16 -45 -17 -193 -1 -193 66 -2 368 -45 368 -52 0 -4
-6 -8 -12 -8 -8 0 -9 -3 -3 -8 16 -11 17 -31 4 -70 l-11 -35 -67 7 c-235 23
-284 27 -296 22 -10 -4 -26 -117 -30 -221 0 -11 36 -18 215 -39 74 -9 152 -21
173 -26 l38 -11 -7 -57 c-7 -59 -18 -76 -44 -66 -24 9 -402 49 -555 59 -5 0
-10 23 -10 50 1 85 37 799 41 814 5 16 96 12 359 -15z m-1537 -26 c5 -7 13
-34 16 -60 6 -41 4 -48 -16 -62 -12 -9 -34 -16 -49 -16 -28 0 -191 -27 -222
-36 -15 -5 -17 -12 -12 -32 4 -15 16 -81 26 -147 11 -66 24 -149 30 -185 6
-36 15 -92 21 -125 5 -33 13 -82 18 -110 5 -27 9 -69 9 -92 l1 -42 -47 -6
c-27 -3 -62 -8 -79 -11 -39 -6 -43 4 -73 166 -12 63 -29 138 -36 165 -8 28
-26 109 -40 180 -37 195 -36 190 -76 189 -19 -1 -74 -11 -124 -23 -127 -29
-138 -28 -153 12 -7 18 -12 47 -12 63 l0 29 133 32 c72 18 177 39 232 48 55 9
118 21 141 26 33 9 247 44 290 48 6 0 16 -5 22 -11z m2352 -98 c19 -5 55 -14
80 -21 25 -6 59 -24 75 -39 17 -15 44 -34 60 -42 17 -8 29 -19 28 -26 -2 -6 6
-13 16 -17 26 -8 62 -92 63 -148 0 -26 -2 -50 -5 -54 -6 -6 -99 13 -132 27
-11 4 -28 11 -37 14 -12 3 -18 16 -18 33 -1 46 -48 103 -105 125 -113 44 -225
11 -225 -67 0 -44 41 -86 145 -149 43 -26 84 -54 92 -62 8 -8 18 -14 23 -14
17 0 122 -111 135 -144 18 -43 19 -121 3 -167 -19 -54 -80 -112 -140 -133 -58
-19 -148 -18 -243 3 -128 28 -254 122 -290 217 l-18 47 27 24 c15 13 35 23 44
24 9 0 -1 7 -23 15 l-40 14 52 -5 c67 -7 123 -30 125 -53 2 -32 4 -37 21 -69
24 -46 94 -84 167 -90 76 -7 113 8 135 54 31 64 13 96 -97 175 -21 16 -41 28
-44 28 -16 0 -172 112 -205 147 -39 41 -69 107 -69 152 0 74 78 174 146 187
19 3 37 10 40 15 7 12 169 11 214 -1z m-3294 -121 c38 -110 91 -313 100 -376
3 -29 9 -51 13 -49 4 3 22 -59 40 -137 19 -78 40 -162 48 -187 13 -41 13 -45
-4 -57 -17 -13 -53 -24 -120 -38 -31 -6 -31 -6 -48 52 -9 32 -25 86 -36 121
-11 35 -17 68 -13 74 4 6 3 8 -3 5 -6 -4 -15 9 -21 31 -6 20 -22 73 -35 117
-98 319 -127 424 -118 429 3 2 33 11 66 21 33 9 69 21 80 25 30 13 39 7 51
-31z m-336 -121 c31 -68 28 -74 -47 -98 -38 -11 -76 -25 -85 -30 -10 -5 -25
-7 -34 -3 -11 4 -15 2 -11 -4 8 -12 -69 -37 -85 -27 -6 4 -8 3 -5 -3 3 -5 -25
-24 -64 -43 -38 -18 -69 -37 -69 -42 0 -5 13 -42 29 -81 16 -40 32 -82 36 -94
3 -13 14 -23 23 -23 16 0 99 28 147 50 45 19 162 60 191 66 30 6 31 4 48 -50
10 -30 15 -60 12 -65 -4 -5 -23 -15 -44 -21 -20 -6 -46 -15 -57 -19 -11 -5
-64 -25 -117 -45 -53 -21 -102 -44 -109 -52 -14 -17 -4 -54 66 -223 52 -127
53 -120 -30 -147 -27 -9 -55 -20 -61 -25 -14 -11 -46 24 -68 76 -9 22 -21 48
-27 58 -18 34 -59 150 -59 169 0 11 -11 34 -24 51 -56 74 -193 377 -181 398 5
8 4 10 -3 5 -7 -4 -12 -5 -12 -2 0 2 -3 11 -6 20 -6 16 22 32 151 81 67 26 99
39 173 71 18 8 37 14 43 14 6 0 34 11 62 23 64 29 144 55 175 56 18 1 27 -9
42 -41z m4485 -18 c114 -32 250 -132 288 -212 33 -71 34 -178 1 -178 -26 0
-148 51 -161 68 -7 9 -13 29 -13 44 0 68 -54 119 -154 145 -61 16 -66 16 -122
-2 -33 -11 -62 -22 -66 -25 -4 -3 1 -21 10 -40 27 -57 59 -92 181 -200 130
-115 162 -156 182 -234 21 -85 -20 -176 -106 -232 -34 -22 -176 -30 -245 -14
-58 14 -153 60 -186 91 -11 10 -26 19 -33 19 -7 0 -9 5 -6 10 3 6 -1 10 -9 10
-9 0 -16 3 -16 8 0 4 -15 24 -34 45 -35 40 -56 108 -56 178 0 34 3 39 23 39
24 0 98 -23 135 -42 17 -9 22 -20 22 -49 0 -50 28 -95 81 -131 118 -79 248
-53 249 50 0 28 -11 44 -72 105 -40 40 -100 96 -132 125 -71 62 -139 150 -156
202 -10 31 -10 46 4 92 17 61 49 104 67 92 8 -4 9 -3 5 5 -5 8 3 16 23 24 17
6 31 16 31 21 0 12 212 1 265 -14z m-2075 -820 c241 -19 365 -32 370 -40 3 -4
36 -10 74 -14 39 -3 86 -11 105 -16 20 -5 80 -17 133 -26 54 -9 96 -20 94 -23
-2 -3 6 -7 17 -7 59 -4 184 -39 464 -131 56 -18 106 -33 110 -33 4 0 16 20 26
45 16 38 23 45 47 45 42 0 97 -27 103 -50 3 -11 12 -20 20 -20 34 0 176 -80
198 -112 44 -62 143 -151 204 -184 80 -43 170 -94 225 -127 36 -22 74 -45 85
-51 17 -9 72 -46 250 -166 67 -45 81 -55 86 -64 4 -4 27 -10 51 -12 36 -3 67
-18 164 -84 65 -44 124 -80 131 -80 6 0 22 17 34 38 13 20 30 44 38 52 8 8 29
37 47 65 19 27 47 69 64 93 16 23 30 45 30 47 0 8 104 150 113 153 4 2 7 8 7
13 0 13 63 98 72 99 7 0 69 -40 191 -124 31 -21 57 -43 57 -48 0 -13 -66 -114
-80 -123 -7 -4 -15 -4 -19 1 -3 5 -25 22 -49 38 -25 17 -41 35 -40 45 2 12 -6
16 -30 18 -19 1 -41 8 -51 17 -24 22 -36 20 -49 -9 -7 -14 -24 -30 -39 -36
-19 -7 -23 -13 -15 -21 8 -8 8 -17 1 -30 -5 -10 -7 -23 -3 -29 9 -16 151 -119
163 -119 16 0 17 -49 2 -60 -4 -3 -23 -27 -41 -55 -19 -27 -37 -51 -42 -53 -4
-2 -8 -9 -8 -16 0 -7 -13 -32 -30 -54 -16 -23 -30 -44 -30 -48 0 -3 -7 -12
-15 -20 -8 -8 -66 -92 -130 -187 -220 -328 -379 -556 -417 -598 -10 -10 -18
-23 -18 -27 0 -5 -8 -16 -19 -26 -17 -16 -22 -14 -97 37 -43 30 -78 60 -76 66
1 7 -2 10 -7 6 -13 -7 -81 36 -81 52 0 6 16 29 36 50 20 21 56 71 80 111 44
72 184 282 194 292 14 13 70 108 70 119 0 6 -11 17 -25 23 -14 6 -25 15 -25
20 0 4 -7 8 -15 8 -8 0 -15 3 -15 8 0 4 -17 18 -38 32 -20 13 -61 42 -90 64
l-52 39 25 42 24 43 -70 48 c-39 27 -92 62 -117 79 -26 16 -48 33 -50 37 -2 4
-8 8 -12 8 -5 0 -45 25 -89 55 -44 30 -82 55 -85 55 -3 0 -65 36 -138 80 -141
85 -174 95 -180 58 -5 -34 10 -98 31 -127 39 -55 141 -246 141 -265 0 -8 16
-38 35 -67 19 -29 37 -65 40 -81 4 -16 13 -41 21 -56 8 -15 14 -32 14 -39 0
-7 6 -27 14 -45 34 -78 44 -105 56 -143 7 -22 18 -53 26 -68 10 -20 14 -68 14
-165 0 -75 4 -174 10 -220 11 -95 2 -132 -31 -132 -15 0 -19 -4 -15 -15 4 -11
-18 -39 -69 -87 -41 -39 -75 -76 -75 -82 0 -7 -9 -23 -20 -36 -10 -14 -29 -40
-42 -59 -13 -19 -30 -36 -38 -39 -12 -4 -13 -2 -2 9 6 7 12 19 12 27 0 7 15
43 33 79 31 64 89 126 135 144 21 8 31 29 14 29 -4 0 -31 -15 -60 -33 -52 -33
-92 -78 -119 -132 -33 -71 -111 -190 -122 -188 -6 2 -11 -3 -11 -10 0 -6 -16
-23 -34 -37 -18 -14 -103 -81 -187 -149 -171 -139 -145 -128 -360 -152 -77 -9
-123 -9 -170 -2 -74 13 -76 12 -107 -64 -22 -56 -24 -59 -90 -130 -23 -25 -65
-91 -93 -147 -28 -56 -55 -100 -60 -99 -4 2 -6 -4 -3 -12 11 -27 31 -16 50 28
10 23 23 45 29 49 5 4 7 8 3 8 -11 0 46 87 84 129 18 20 43 48 54 63 12 15 24
24 28 21 3 -3 6 1 6 9 0 9 9 36 20 62 l21 46 127 0 c139 1 260 13 307 32 17 6
65 39 109 72 43 34 91 70 106 81 95 70 225 195 235 225 7 21 17 25 28 13 9 -8
-19 -51 -52 -79 -14 -12 -37 -32 -51 -44 -86 -74 -127 -108 -225 -186 -60 -48
-123 -93 -140 -99 -44 -18 -311 -55 -374 -52 l-54 2 -32 -57 c-17 -32 -35 -55
-40 -50 -4 4 -6 0 -3 -8 3 -9 -9 -27 -31 -45 -21 -16 -46 -46 -57 -67 -62
-119 -78 -146 -86 -142 -4 3 -5 -1 -2 -9 6 -18 -68 -152 -110 -195 -17 -19
-58 -54 -92 -78 l-61 -43 -10 -100 c-10 -92 -23 -134 -59 -203 -19 -36 -18
-62 6 -83 11 -10 22 -33 26 -51 3 -19 10 -37 15 -40 5 -3 9 -14 9 -24 0 -13
-23 -30 -82 -59 -136 -66 -326 -130 -347 -116 -5 3 -12 1 -16 -5 -3 -5 -23
-10 -43 -10 -29 1 -33 3 -21 10 10 6 33 35 53 65 31 46 38 68 46 137 5 46 12
101 15 123 7 52 -12 88 -49 95 -26 4 -27 7 -13 18 23 20 37 68 45 167 l8 88
-45 28 c-25 16 -50 29 -55 29 -6 0 -39 14 -73 32 l-63 32 -52 -18 c-29 -11
-57 -22 -63 -26 -19 -14 -90 -34 -110 -31 -11 1 -47 16 -80 31 -98 46 -101 46
-206 -3 -52 -24 -106 -49 -120 -55 -25 -10 -26 -11 -17 -78 14 -123 28 -179
46 -192 16 -12 16 -15 -6 -53 -21 -36 -23 -50 -20 -153 2 -63 6 -112 11 -109
4 2 7 -3 7 -11 0 -8 20 -40 45 -71 41 -50 43 -55 23 -55 -13 0 -58 9 -102 20
-43 11 -85 20 -94 20 -24 0 -243 90 -283 117 l-37 25 15 46 c9 25 22 57 30 71
19 37 16 91 -6 128 -25 39 -43 139 -37 194 5 45 -1 69 -16 69 -20 0 -160 124
-185 164 -48 75 -104 187 -98 197 4 5 2 9 -3 9 -6 0 -8 9 -5 20 3 11 0 20 -6
20 -6 0 -12 8 -12 18 -1 15 -2 15 -6 -1 -4 -14 -10 -9 -26 24 -11 23 -42 64
-68 92 -25 27 -56 68 -68 92 -31 63 -51 77 -88 64 -54 -18 -322 20 -399 58
-17 8 -45 27 -62 43 -17 15 -46 38 -64 51 -18 12 -51 39 -74 58 -22 20 -64 56
-93 80 -101 86 -134 119 -127 130 4 6 2 9 -6 6 -8 -3 -21 8 -33 27 -10 18 -42
69 -71 113 -47 72 -77 106 -164 188 -73 69 -72 64 -59 168 6 52 14 167 18 256
4 88 12 167 18 175 6 7 16 31 22 53 7 22 16 49 21 60 5 11 16 42 26 68 9 26
21 50 25 53 5 3 9 14 9 25 0 11 4 17 10 14 6 -3 7 1 4 10 -6 15 0 31 57 151
16 33 29 63 29 67 0 3 24 46 53 94 29 48 61 105 72 125 10 20 21 35 24 33 4
-2 6 7 6 18 1 12 4 34 8 50 11 39 -14 45 -71 16 -26 -13 -51 -24 -57 -24 -5 0
-12 -3 -15 -6 -12 -14 -113 -79 -154 -99 -25 -12 -46 -26 -46 -31 0 -5 -4 -9
-9 -9 -30 0 -341 -218 -341 -239 0 -7 9 -29 21 -48 17 -28 19 -36 8 -49 -7 -8
-21 -13 -31 -11 -11 3 -26 -5 -41 -23 -13 -15 -58 -51 -100 -80 -42 -29 -77
-58 -77 -64 0 -10 67 -114 81 -126 3 -3 22 -33 43 -66 21 -34 46 -71 57 -83
10 -11 19 -23 19 -26 0 -3 22 -36 50 -75 28 -39 50 -73 50 -76 0 -3 18 -32 40
-64 l40 -59 -42 -31 c-24 -18 -76 -56 -117 -86 -41 -30 -80 -54 -87 -54 -14 0
-37 33 -258 359 -65 97 -121 178 -125 181 -4 3 -22 30 -41 60 -33 52 -41 63
-65 93 -9 11 -93 133 -120 176 -6 9 -39 59 -73 111 -64 97 -73 120 -47 120 19
0 55 36 55 55 0 20 -30 19 -58 -1 -12 -8 -27 -14 -32 -12 -8 2 37 36 168 125
14 10 15 15 4 33 -7 11 -10 26 -6 32 4 7 3 8 -4 4 -7 -4 -22 10 -36 33 -14 22
-29 42 -33 44 -5 3 -31 -9 -57 -26 -27 -18 -56 -36 -65 -42 -9 -5 -33 -23 -54
-39 -21 -16 -39 -27 -41 -25 -1 2 -22 29 -44 60 -41 55 -51 79 -33 79 5 0 16
6 24 14 20 21 149 106 160 106 5 0 22 9 39 21 16 12 30 20 32 18 1 -2 32 -49
69 -104 37 -55 105 -154 152 -220 46 -66 88 -127 92 -135 25 -47 68 -100 82
-100 9 0 27 10 41 21 81 66 208 141 240 143 41 2 32 -3 178 98 62 43 118 76
124 72 6 -4 8 -3 5 3 -4 6 25 30 64 54 39 24 85 53 103 64 17 12 67 40 111 64
126 68 185 109 194 134 5 13 25 37 45 55 20 17 36 35 36 40 0 27 159 132 200
132 6 0 24 13 39 29 17 19 42 31 70 36 50 8 61 1 76 -53 10 -33 14 -37 40 -35
17 1 88 22 160 47 71 25 168 55 215 67 47 12 96 26 110 31 30 12 57 19 215 52
66 14 131 28 145 30 99 21 307 50 475 65 117 11 612 12 745 1z m-4303 -862
l43 -62 -28 -23 c-42 -35 -219 -153 -228 -153 -5 0 -27 27 -48 61 -38 58 -38
60 -20 77 43 39 222 162 234 162 3 0 24 -28 47 -62z m7988 41 c-3 -5 1 -6 9
-3 12 5 90 -40 116 -66 3 -3 29 -21 57 -40 29 -19 53 -41 53 -48 0 -28 -66
-112 -88 -112 -8 0 -30 11 -48 25 -18 14 -35 25 -39 25 -9 0 -88 53 -115 78
-14 12 -28 22 -32 22 -20 0 11 62 60 122 15 17 37 15 27 -3z m-8295 -267 c0
-5 7 -15 15 -22 27 -22 16 -36 -71 -96 -47 -33 -102 -71 -121 -86 -20 -16 -39
-28 -42 -28 -7 0 -72 96 -83 122 -5 13 6 25 45 49 29 19 54 36 57 40 3 3 36
26 74 51 l68 46 29 -33 c16 -18 29 -37 29 -43z m8669 26 c36 -24 75 -51 85
-60 11 -10 23 -18 26 -18 4 0 17 -9 29 -19 13 -11 28 -22 33 -23 6 -2 -2 -23
-18 -47 -16 -24 -35 -54 -42 -67 -16 -29 -22 -30 -54 -5 -13 11 -56 41 -94 68
-107 73 -127 91 -118 105 32 56 69 108 77 108 6 0 40 -19 76 -42z m-8084 -204
c213 -315 294 -434 304 -446 12 -14 61 -84 152 -218 32 -47 88 -128 124 -180
35 -52 65 -97 65 -100 0 -14 -100 -81 -111 -74 -8 4 -9 3 -5 -4 4 -7 3 -12 -2
-12 -5 0 -20 -10 -34 -22 -14 -13 -43 -33 -65 -45 l-40 -22 -33 47 c-19 26
-85 124 -148 217 -64 94 -118 172 -121 175 -3 3 -28 39 -56 80 -27 41 -52 77
-55 80 -6 6 -87 124 -150 220 -25 38 -68 102 -96 142 -27 40 -63 97 -79 126
l-28 52 23 25 c13 14 29 25 36 25 6 0 18 7 25 16 8 9 30 27 49 40 19 13 51 34
70 47 l34 24 31 -37 c16 -21 66 -91 110 -156z m7570 146 c24 -16 46 -30 48
-30 8 0 142 -92 145 -100 1 -4 -4 -13 -13 -20 -8 -7 -15 -16 -15 -21 0 -5 -10
-20 -22 -35 -13 -14 -30 -38 -38 -54 -8 -16 -39 -64 -69 -107 -30 -43 -64 -91
-75 -108 -12 -16 -24 -32 -27 -35 -4 -3 -38 -54 -78 -115 -39 -60 -77 -116
-84 -124 -12 -14 -33 -44 -132 -192 -27 -41 -67 -99 -90 -129 -22 -30 -51 -73
-65 -96 -14 -22 -37 -55 -52 -72 l-27 -32 -48 32 c-26 18 -55 39 -63 47 -8 7
-35 27 -61 43 -64 39 -68 66 -23 140 20 32 39 60 45 63 5 4 18 23 29 43 11 20
58 91 104 157 86 121 184 263 269 388 26 38 47 72 47 78 0 5 4 9 9 9 5 0 24
24 42 53 64 100 178 247 191 247 5 0 29 -13 53 -30z m-8476 -169 c22 -33 41
-62 41 -66 0 -7 -26 -35 -33 -35 -8 0 -156 -100 -162 -110 -8 -12 85 -155 94
-144 5 8 151 106 189 128 15 9 62 -29 62 -50 0 -7 6 -19 13 -26 7 -7 30 -38
50 -68 20 -30 45 -66 55 -80 24 -31 268 -387 302 -439 44 -68 97 -145 114
-166 9 -11 59 -83 111 -159 72 -107 92 -143 84 -153 -7 -7 -16 -13 -22 -13 -5
0 -33 -17 -61 -38 -106 -79 -124 -91 -148 -97 -29 -7 -50 18 -67 83 -6 22 -18
42 -25 44 -12 2 -109 125 -163 205 -7 10 -36 50 -63 88 -56 77 -109 154 -245
354 -49 73 -99 146 -110 161 -11 16 -83 121 -160 235 -77 113 -144 213 -150
221 -7 10 -6 17 5 24 39 23 175 117 199 137 14 12 31 23 37 23 6 0 30 -27 53
-59z m9253 51 c2 -5 30 -26 63 -47 96 -60 155 -108 155 -125 0 -9 -31 -61 -70
-116 -38 -54 -79 -115 -90 -134 -11 -19 -38 -60 -60 -90 -42 -57 -268 -389
-285 -418 -5 -9 -13 -19 -16 -22 -4 -3 -41 -57 -84 -120 -43 -63 -81 -117 -85
-120 -4 -3 -16 -21 -27 -41 -10 -20 -45 -72 -76 -115 -32 -43 -81 -110 -108
-149 -28 -38 -56 -70 -62 -71 -7 0 -24 8 -39 18 -14 10 -31 18 -37 18 -6 0
-11 5 -11 10 0 6 -7 10 -15 10 -8 0 -15 3 -15 8 -1 4 -30 27 -65 52 -36 25
-65 48 -65 52 0 4 23 40 50 80 28 40 66 96 85 123 18 28 57 84 87 127 129 186
178 259 178 268 0 6 4 10 9 10 4 0 21 19 36 43 42 63 163 225 174 231 5 4 12
20 16 36 4 17 10 30 13 30 4 0 23 26 41 58 40 66 83 122 94 122 4 0 48 -27 98
-60 49 -34 95 -63 102 -66 13 -5 97 103 97 124 0 6 -35 36 -77 66 -43 31 -88
65 -100 75 l-23 19 35 52 c19 29 35 56 35 61 0 11 37 12 42 1z m-8640 -272
c61 -91 114 -167 118 -170 3 -3 21 -30 40 -60 18 -30 41 -64 51 -75 9 -11 25
-34 36 -51 48 -82 106 -164 114 -164 5 0 9 -5 9 -10 0 -9 135 -218 149 -230 3
-3 28 -38 56 -79 32 -48 45 -76 37 -79 -7 -2 -10 -8 -7 -13 4 -5 -1 -6 -9 -3
-9 4 -16 1 -16 -6 0 -15 -13 -26 -100 -84 -112 -75 -104 -74 -147 -14 -93 127
-103 143 -103 155 0 7 -4 13 -9 13 -5 0 -21 20 -35 44 -14 25 -32 51 -39 58
-11 12 -41 55 -131 188 -17 25 -34 50 -38 55 -32 40 -98 136 -98 142 0 3 -17
29 -38 57 -21 28 -59 85 -86 126 -27 41 -61 93 -76 115 -14 22 -38 61 -53 86
l-26 46 27 25 c25 22 147 105 197 134 26 15 33 7 177 -206z m8166 185 c17 -14
33 -25 36 -25 7 0 114 -77 133 -96 7 -7 18 -14 25 -16 8 -3 -1 -22 -25 -55
-20 -28 -37 -54 -37 -59 0 -4 -17 -28 -38 -53 -21 -25 -41 -53 -44 -63 -4 -9
-40 -63 -80 -120 -40 -57 -95 -136 -122 -176 -27 -39 -53 -72 -58 -72 -4 0 -8
-6 -8 -12 0 -13 -146 -224 -181 -261 -10 -12 -19 -25 -19 -30 0 -17 -153 -237
-166 -237 -7 0 -25 10 -41 23 -15 13 -46 34 -68 47 -22 13 -42 26 -45 30 -4 4
-62 43 -99 67 -3 2 27 47 142 213 21 30 53 78 71 105 19 28 58 84 86 125 137
195 180 260 180 270 0 5 4 10 9 10 5 0 28 28 50 63 22 34 63 94 91 132 28 39
58 81 67 95 31 45 78 105 88 112 15 12 21 10 53 -17z m-8919 -405 c45 -61 81
-113 81 -117 0 -3 18 -30 40 -60 77 -102 117 -158 156 -218 50 -76 107 -159
115 -165 3 -3 14 -18 23 -35 9 -16 36 -57 61 -90 25 -33 49 -70 55 -83 5 -12
18 -31 28 -42 10 -11 25 -33 32 -48 8 -15 23 -37 35 -50 20 -23 20 -24 1 -38
-32 -23 -42 -17 -86 48 -24 34 -47 67 -52 72 -4 6 -47 65 -94 131 -101 142
-112 155 -132 155 -18 0 -77 62 -99 103 -8 16 -13 41 -11 56 1 15 -5 40 -15
54 -9 14 -17 30 -17 35 0 5 -9 17 -20 27 -11 10 -20 22 -20 26 0 8 -108 167
-127 187 -7 7 -13 20 -13 28 0 8 -4 14 -8 14 -8 0 -52 71 -52 83 0 6 29 37 35
37 2 0 40 -50 84 -110z m9576 79 c6 -19 -27 -73 -174 -287 -87 -127 -101 -153
-95 -179 11 -40 -69 -153 -107 -153 -10 0 -28 -14 -41 -30 -58 -76 -87 -115
-138 -191 -107 -159 -141 -200 -157 -197 -42 8 -35 32 39 141 40 60 80 119 88
131 8 13 29 42 45 66 17 24 35 50 40 59 6 8 25 38 44 66 19 27 82 120 140 205
144 214 240 351 264 377 21 24 43 21 52 -8z m-4818 -2181 c43 -45 117 -71 187
-66 34 3 70 8 81 12 18 7 19 7 3 -6 -26 -22 -197 -50 -234 -39 -39 11 -50 4
-59 -36 -9 -46 -23 -50 -31 -8 -6 35 -6 35 -59 35 -63 0 -185 24 -222 44 -23
12 -14 13 74 8 81 -4 107 -1 136 13 43 20 77 82 77 142 0 22 3 56 8 74 5 26 8
12 10 -56 3 -81 5 -92 29 -117z m-2241 -918 c71 -6 133 -15 138 -20 6 -6 24
-10 40 -10 56 0 222 -56 297 -99 112 -64 155 -108 184 -190 l14 -41 -173 0
c-221 0 -296 7 -296 29 -1 22 -74 82 -141 115 -93 45 -367 59 -539 26 -57 -11
-162 -58 -195 -87 -29 -26 -85 -99 -85 -111 0 -6 -5 -12 -12 -14 -14 -5 -13
-171 2 -275 21 -150 142 -240 365 -273 164 -23 515 -2 572 35 21 14 23 22 23
110 l0 95 -222 2 -223 3 0 80 0 80 454 2 c354 2 457 0 463 -10 9 -14 11 -370
2 -414 -5 -25 -15 -34 -62 -52 -32 -13 -66 -27 -77 -32 -11 -4 -49 -13 -85
-19 -36 -6 -99 -20 -140 -30 -130 -32 -309 -43 -608 -37 -268 5 -281 7 -396
36 -123 32 -193 54 -223 70 -10 5 -48 23 -85 41 -87 42 -187 139 -230 222 -32
62 -32 65 -33 203 0 136 1 142 30 199 54 106 137 181 281 254 74 37 217 79
299 88 33 3 65 9 70 12 33 21 387 28 591 12z m1521 -112 c58 -58 101 -109 98
-116 -2 -7 1 -12 8 -10 18 4 110 -89 101 -103 -4 -7 -3 -9 3 -6 6 4 47 -32 93
-78 45 -47 88 -85 95 -85 8 0 23 12 35 28 12 15 121 128 244 252 l222 225 257
0 c141 0 257 -1 257 -1 0 -8 -227 -218 -286 -265 -22 -17 -41 -34 -44 -38 -3
-4 -18 -17 -35 -29 -16 -13 -91 -82 -165 -155 -75 -73 -159 -153 -188 -179
l-52 -46 0 -195 c0 -108 -3 -202 -6 -211 -5 -14 -36 -16 -238 -16 -167 0 -235
3 -244 12 -9 9 -12 70 -12 214 l0 202 -77 71 c-43 38 -100 90 -126 115 -26 26
-52 46 -57 46 -5 0 -7 7 -3 15 3 9 2 15 -3 13 -14 -5 -57 29 -50 40 3 5 0 9
-8 8 -11 -1 -138 107 -215 185 -14 14 -64 59 -111 100 -70 61 -120 108 -120
113 0 1 118 0 262 -1 l262 -3 103 -102z m4181 102 c15 0 17 -136 2 -176 -7
-18 -7 -65 0 -148 7 -77 8 -243 4 -457 l-7 -336 -223 -6 c-122 -4 -230 -4
-240 0 -16 6 -17 26 -11 262 7 243 16 375 35 504 13 89 -10 76 -117 -68 -29
-38 -58 -77 -64 -85 -7 -8 -40 -51 -73 -95 -63 -83 -124 -159 -147 -185 -8 -8
-22 -28 -33 -45 -10 -16 -21 -32 -24 -35 -3 -3 -33 -41 -65 -85 -33 -44 -77
-101 -99 -128 l-40 -47 -160 6 c-134 5 -163 9 -176 23 -20 23 -49 60 -120 156
-33 44 -69 90 -80 102 -11 12 -20 25 -20 29 0 4 -7 14 -15 23 -32 35 -204 255
-245 314 -8 12 -25 33 -38 47 -13 14 -39 46 -60 73 -41 54 -67 62 -58 20 3
-16 13 -122 21 -237 17 -221 17 -225 -27 -226 -10 0 -18 -7 -18 -15 0 -11 9
-14 33 -13 l32 3 0 -142 c-1 -78 -3 -144 -5 -146 -3 -3 -112 -7 -242 -10
l-238 -5 0 564 0 564 324 0 324 0 17 -26 c9 -14 23 -33 32 -42 8 -9 46 -60 84
-112 67 -92 81 -110 144 -190 17 -21 62 -82 100 -135 39 -54 78 -107 88 -119
10 -12 36 -46 58 -76 58 -79 79 -99 95 -93 8 3 39 37 69 77 30 39 68 87 85
106 16 20 42 54 57 77 30 43 62 87 158 212 33 43 85 113 115 155 30 43 72 99
92 124 l37 47 313 -2 c172 -2 319 -3 326 -3z"/>
<path d="M5910 6509 c-52 -4 -131 -12 -175 -18 -44 -6 -117 -15 -163 -21 -186
-24 -513 -95 -677 -147 -44 -14 -100 -31 -125 -39 -44 -14 -79 -28 -110 -44
-8 -4 -14 -16 -12 -26 2 -11 6 -58 9 -106 l5 -87 -50 -46 c-72 -66 -119 -102
-184 -142 -46 -28 -63 -47 -83 -87 -44 -91 -87 -375 -59 -394 26 -18 76 -212
89 -352 9 -85 22 -128 45 -140 21 -11 32 -8 115 31 l60 28 188 -63 c103 -35
198 -72 210 -82 40 -35 47 -43 47 -52 0 -4 10 -18 23 -30 l22 -21 95 19 c52
11 110 19 128 20 30 0 90 30 123 62 26 25 152 71 266 99 l51 12 51 -38 c28
-22 51 -42 51 -45 1 -3 23 -29 49 -59 36 -40 49 -62 49 -85 0 -17 21 -92 46
-166 26 -74 44 -141 41 -149 -3 -9 -3 -12 1 -8 7 7 20 -28 67 -183 30 -99 68
-263 62 -269 -5 -5 -10 8 -25 66 -15 60 -67 131 -135 185 -45 36 -70 66 -100
121 -43 80 -91 140 -115 145 -48 10 -140 76 -185 132 -29 37 -59 63 -74 66
-14 3 -33 8 -41 10 -44 15 -222 44 -260 43 -30 0 -62 -10 -95 -28 -50 -28 -50
-29 -48 -77 1 -44 6 -53 45 -90 24 -22 48 -43 53 -45 38 -16 116 -160 140
-259 9 -36 20 -74 25 -85 4 -11 13 -42 20 -70 6 -27 25 -88 41 -135 41 -114
61 -181 63 -207 0 -11 4 -19 7 -17 7 4 20 -47 21 -86 0 -14 2 -20 5 -13 3 8
10 7 23 -4 19 -16 184 -82 278 -110 l53 -16 67 35 c37 20 96 45 131 57 45 15
75 32 97 56 30 34 64 46 64 25 0 -6 -7 -27 -15 -46 -12 -29 -19 -35 -35 -31
-11 3 -18 2 -15 -3 2 -4 -17 -13 -43 -20 -47 -12 -106 -39 -192 -87 -40 -22
-52 -24 -108 -19 -35 4 -93 18 -130 32 l-67 25 -23 -28 c-55 -66 -75 -83 -127
-109 -30 -14 -55 -33 -55 -40 0 -37 181 -131 286 -148 39 -7 50 -2 180 74 76
44 149 83 164 87 14 3 31 11 38 16 8 7 68 11 145 12 126 0 135 -1 202 -31 39
-16 107 -54 153 -82 46 -29 87 -52 92 -52 4 0 13 -7 20 -15 16 -19 58 -19 123
1 112 34 226 102 227 136 0 9 -18 27 -40 39 -22 13 -40 26 -40 31 0 4 -4 7 -8
6 -13 -5 -69 47 -76 69 -4 12 -13 24 -20 26 -17 7 -56 -2 -56 -13 0 -7 -52
-20 -110 -27 -14 -1 -43 -6 -66 -9 -28 -4 -45 -1 -55 8 -8 8 -29 20 -47 27
-18 8 -43 27 -55 43 -19 24 -27 27 -47 20 -23 -9 -129 3 -142 16 -10 10 -19
102 -10 102 5 0 33 -18 62 -40 29 -22 57 -40 61 -40 4 0 55 -23 114 -51 l106
-50 133 46 c79 27 140 43 152 39 15 -5 16 -4 4 5 -13 9 -13 11 1 11 22 0 46
29 55 65 4 17 10 35 14 40 4 6 17 42 29 80 13 39 27 74 32 79 5 6 9 21 9 35 1
37 35 132 45 123 5 -4 5 -1 1 6 -4 7 0 38 9 70 33 111 43 147 50 177 8 38 54
132 80 165 29 35 78 82 107 102 28 19 59 96 51 126 -4 18 -70 56 -123 72 -14
4 -46 4 -70 0 -96 -16 -201 -41 -237 -57 -33 -15 -35 -18 -16 -21 21 -3 19 -6
-21 -45 -86 -83 -122 -112 -170 -137 -45 -23 -106 -71 -106 -83 0 -8 -81 -137
-86 -137 -8 0 90 176 105 187 9 7 27 22 41 34 l25 21 -25 -7 c-14 -3 -32 -7
-40 -8 -23 -3 -38 -21 -68 -84 -35 -73 -74 -134 -98 -153 -16 -13 -17 -13 -9
0 5 8 -21 -15 -57 -52 -74 -74 -93 -104 -103 -163 -4 -22 -11 -47 -16 -55 -16
-29 -9 43 12 120 11 41 24 89 28 105 17 62 64 191 83 230 11 22 22 63 25 90 2
28 8 52 14 53 5 2 9 12 9 21 0 10 3 21 7 25 9 9 32 94 33 120 0 14 -5 17 -24
14 -19 -4 -13 5 31 46 50 45 147 162 155 187 2 5 48 -9 103 -30 55 -21 116
-42 135 -46 46 -9 108 -43 143 -77 28 -27 44 -32 148 -43 31 -3 80 -12 110
-20 60 -16 71 -11 110 52 22 36 68 61 159 88 30 9 64 21 75 25 49 21 182 62
200 62 11 0 44 -11 74 -26 30 -14 69 -26 87 -26 30 0 34 4 43 38 5 20 15 80
21 132 7 52 16 96 21 98 4 2 6 9 3 16 -8 20 24 133 53 190 25 49 25 53 14 128
-6 42 -9 89 -6 105 5 19 4 24 -3 14 -7 -9 -13 7 -21 55 -16 94 -45 150 -95
185 -22 16 -46 33 -53 39 -7 5 -15 10 -19 10 -7 0 -44 30 -121 98 l-53 46 0
93 c0 50 5 95 10 98 21 13 8 34 -32 53 -44 20 -249 83 -393 120 -265 69 -499
106 -760 121 -237 14 -612 19 -725 10z m459 -475 c89 -28 213 -100 231 -135 7
-13 7 -19 0 -19 -14 0 -13 -27 1 -32 9 -3 9 -33 1 -118 -6 -63 -7 -117 -3
-120 5 -3 12 -25 16 -49 5 -30 18 -54 41 -78 28 -28 34 -41 34 -77 0 -24 -6
-62 -14 -84 -8 -22 -16 -66 -18 -98 -1 -33 -7 -62 -12 -66 -5 -3 -3 -20 6 -40
29 -62 19 -196 -17 -232 -8 -8 -15 -19 -15 -23 0 -17 -137 -146 -192 -180 -81
-52 -156 -83 -202 -83 -74 0 -197 73 -317 187 -110 106 -134 185 -110 375 11
86 10 97 -9 147 -12 29 -20 61 -19 70 2 9 -1 27 -5 40 -7 20 -2 30 33 61 26
24 41 46 41 61 0 13 6 35 13 49 13 27 14 103 3 220 -7 73 -6 76 21 106 54 60
126 96 268 135 81 22 106 20 224 -17z"/>
<path d="M5983 5788 c-24 -29 -49 -129 -56 -222 l-2 -30 55 3 c63 2 183 -37
188 -62 4 -21 -46 -77 -70 -77 -11 0 -22 8 -25 20 -3 12 -17 23 -32 26 -14 3
-35 9 -46 14 -64 27 -82 20 -65 -25 7 -18 7 -33 -1 -48 -7 -11 -12 -44 -12
-71 -1 -48 2 -54 48 -101 79 -79 77 -79 119 -54 50 29 171 36 246 14 100 -30
105 -30 129 2 12 15 35 43 52 61 29 32 30 36 25 95 -3 34 -6 76 -6 94 0 18 -4
34 -8 37 -14 8 -79 -19 -75 -31 3 -7 -11 -15 -34 -19 -21 -4 -50 -13 -64 -20
-33 -16 -63 -93 -56 -139 5 -33 5 -33 -44 -39 -30 -4 -57 -2 -70 5 -21 11 -20
12 17 33 38 21 39 24 52 101 17 100 29 122 83 153 33 19 62 26 119 29 41 2 78
7 84 13 5 5 0 37 -15 82 l-24 73 -6 -40 c-6 -38 -6 -37 -8 16 0 30 4 60 10 66
8 8 8 17 0 32 -14 26 -59 28 -121 6 -50 -18 -205 -20 -265 -4 -71 19 -110 22
-122 7z"/>
<path d="M4153 6308 c-18 -13 -33 -27 -33 -33 0 -5 20 -52 45 -102 47 -99 53
-103 114 -82 23 8 31 17 31 34 0 13 7 30 15 39 22 22 18 34 -12 38 -22 2 -34
15 -59 63 -36 68 -54 76 -101 43z"/>
<path d="M8240 6313 c-15 -18 -73 -141 -84 -179 -8 -25 5 -36 56 -51 43 -13
49 -7 87 90 13 31 27 60 32 63 22 13 8 55 -23 74 -40 24 -50 25 -68 3z"/>
<path d="M4221 5670 c-17 -28 -31 -53 -31 -56 0 -3 -15 -28 -33 -57 -56 -88
-90 -183 -82 -233 10 -70 34 -69 54 3 5 18 23 47 41 65 17 18 37 44 44 58 17
31 52 159 61 223 10 65 -13 63 -54 -3z"/>
<path d="M8185 5710 c-7 -11 1 -65 20 -133 15 -51 15 -51 15 -71 0 -15 64
-114 84 -131 7 -5 21 -32 31 -58 10 -26 23 -46 29 -44 14 5 36 96 25 103 -5 3
-9 12 -9 20 0 8 -10 34 -21 57 -12 23 -32 64 -46 91 -35 70 -103 176 -113 176
-5 0 -12 -4 -15 -10z"/>
<path d="M4202 5408 c-5 -7 -26 -46 -44 -85 -19 -40 -37 -70 -40 -68 -9 10
-18 -107 -19 -258 0 -82 1 -150 3 -151 48 -41 95 -65 111 -60 34 11 99 77 117
119 14 34 15 56 9 143 -10 127 -22 173 -60 225 -19 27 -27 47 -23 60 4 12 2
17 -4 13 -5 -3 -12 12 -16 34 -6 41 -16 49 -34 28z"/>
<path d="M8226 5377 c-9 -23 -16 -53 -16 -65 0 -12 -3 -22 -7 -22 -10 0 -56
-67 -61 -89 -4 -15 -19 -160 -23 -221 -4 -55 12 -89 68 -140 67 -61 89 -63
143 -12 l40 39 0 84 c1 78 2 82 15 59 8 -14 14 -52 15 -86 0 -115 51 -259 107
-305 15 -14 31 1 132 118 42 49 51 65 43 80 -15 30 -32 88 -32 112 0 12 -11
57 -25 98 -14 42 -24 82 -21 90 3 8 2 12 -3 9 -5 -3 -12 5 -15 19 -7 28 -109
132 -139 141 -11 4 -23 1 -28 -7 -17 -27 -30 -119 -24 -162 6 -35 4 -45 -9
-50 -13 -5 -16 2 -16 41 -1 61 -18 120 -63 213 -50 103 -60 110 -81 56z"/>
<path d="M3943 5226 c-71 -67 -72 -68 -107 -201 -38 -145 -56 -237 -49 -249
16 -29 138 -165 149 -165 11 -1 39 29 65 69 31 49 48 127 59 274 15 201 1 336
-35 336 -7 0 -44 -29 -82 -64z"/>
<path d="M4525 4822 c-98 -50 -202 -140 -191 -168 3 -8 13 -45 22 -82 9 -37
19 -74 23 -82 13 -28 199 -113 251 -114 19 0 99 1 178 2 126 2 143 4 149 20 3
9 15 27 26 39 16 19 19 35 18 100 -1 43 -4 98 -7 123 -7 48 -32 100 -49 100
-5 0 -3 5 5 11 12 8 11 9 -6 4 -12 -3 -34 0 -50 6 -29 11 -146 47 -234 73 -45
13 -47 12 -135 -32z"/>
<path d="M7778 4847 c-62 -21 -79 -42 -25 -30 57 13 113 6 156 -17 22 -13 39
-26 36 -28 -2 -3 -10 0 -17 6 -28 23 -93 38 -128 29 -19 -4 -66 -15 -105 -23
-119 -25 -143 -34 -164 -61 l-21 -26 6 32 c7 33 -5 41 -26 16 -7 -8 -10 -15
-6 -15 4 0 0 -13 -9 -30 -10 -19 -15 -61 -16 -129 -3 -154 18 -173 201 -187
160 -12 211 -10 245 9 17 9 60 30 97 46 72 32 93 55 102 116 3 22 10 55 15 74
11 37 -1 62 -56 112 -37 34 -218 136 -226 128 -1 -1 -28 -11 -59 -22z"/>
<path d="M3780 4497 c0 -7 13 -21 30 -32 31 -21 83 -95 145 -208 46 -84 138
-184 264 -285 53 -42 98 -79 101 -82 3 -3 26 -22 51 -42 62 -49 121 -60 336
-62 95 0 173 -5 173 -9 0 -21 52 -115 79 -145 17 -18 31 -37 31 -42 0 -4 7
-10 15 -13 17 -7 50 -58 112 -175 50 -94 60 -109 68 -100 3 3 -23 61 -58 129
-81 158 -85 165 -130 213 -42 44 -70 90 -60 100 4 3 1 6 -5 6 -7 0 -11 3 -10
8 1 4 -5 20 -12 35 l-14 28 -115 -4 c-74 -3 -147 0 -201 9 -47 8 -99 17 -115
19 -17 3 -51 23 -75 45 -25 22 -50 40 -57 40 -6 0 -13 4 -15 9 -1 5 -42 40
-89 78 -192 153 -195 157 -225 217 -43 87 -48 96 -56 96 -5 0 -8 6 -8 13 -1
25 -80 120 -119 143 -25 14 -41 18 -41 11z"/>
<path d="M6941 3491 l-21 -21 28 -44 c15 -25 32 -47 38 -50 15 -6 181 13 211
25 20 7 24 15 21 41 -3 30 -7 32 -58 44 -30 7 -87 16 -126 19 -65 6 -74 5 -93
-14z"/>
<path d="M5300 3490 c-33 -8 -60 -33 -60 -54 1 -29 23 -39 112 -50 52 -7 99
-15 105 -19 12 -8 41 25 67 77 17 32 18 39 5 47 -17 11 -181 10 -229 -1z"/>
</g>
</svg>
